<?xml version="1.0" encoding="UTF-8"?>
<svg width="264px" height="64px" viewBox="0 0 264 64" version="1.1" xmlns="http://www.w3.org/2000/svg" xmlns:xlink="http://www.w3.org/1999/xlink">
    <title>logo</title>
    <g id="Page-1" stroke="none" stroke-width="1" fill="none" fill-rule="evenodd">
        <g id="logo" fill-rule="nonzero">
            <path d="M167.16,52.672 C169.304,52.672 171.272,52.328 173.064,51.64 C174.856,50.952 176.304,49.92 177.408,48.544 C178.512,47.168 179.064,45.424 179.064,43.312 C179.064,41.584 178.696,40.096 177.96,38.848 C177.224,37.6 176.248,36.48 175.032,35.488 C173.816,34.496 172.44,33.504 170.904,32.512 C169.144,31.296 167.648,30.256 166.416,29.392 C165.184,28.528 164.248,27.64 163.608,26.728 C162.968,25.816 162.648,24.72 162.648,23.44 C162.648,21.904 163.144,20.704 164.136,19.84 C165.128,18.976 166.392,18.544 167.928,18.544 C169.624,18.544 171.056,19.048 172.224,20.056 C173.392,21.064 174.296,22.352 174.936,23.92 C175.576,25.488 175.96,27.104 176.088,28.768 L176.088,28.768 L177.192,28.768 C177.192,26.528 177.2,24.72 177.216,23.344 C177.232,21.968 177.264,20.856 177.312,20.008 C177.36,19.16 177.4,18.432 177.432,17.824 L177.432,17.824 L176.328,17.824 C176.136,19.232 175.784,19.936 175.272,19.936 C175.048,19.936 174.816,19.88 174.576,19.768 C174.336,19.656 174.024,19.488 173.64,19.264 C172.904,18.816 172.024,18.392 171,17.992 C169.976,17.592 168.52,17.392 166.632,17.392 C164.776,17.392 163.024,17.704 161.376,18.328 C159.728,18.952 158.4,19.912 157.392,21.208 C156.384,22.504 155.88,24.16 155.88,26.176 C155.88,27.936 156.272,29.456 157.056,30.736 C157.84,32.016 158.888,33.152 160.2,34.144 C161.512,35.136 162.92,36.128 164.424,37.12 C166.536,38.496 168.264,39.832 169.608,41.128 C170.952,42.424 171.624,44.064 171.624,46.048 C171.624,47.84 171.048,49.184 169.896,50.08 C168.744,50.976 167.336,51.424 165.672,51.424 C163.624,51.424 161.984,50.864 160.752,49.744 C159.52,48.624 158.608,47.144 158.016,45.304 C157.424,43.464 157.064,41.488 156.936,39.376 L156.936,39.376 L155.832,39.376 C155.832,41.904 155.824,43.992 155.808,45.64 C155.792,47.288 155.776,48.624 155.76,49.648 C155.744,50.672 155.704,51.568 155.64,52.336 L155.64,52.336 L156.744,52.336 C156.936,50.928 157.288,50.224 157.8,50.224 C158.184,50.224 158.728,50.448 159.432,50.896 C160.232,51.312 161.224,51.712 162.408,52.096 C163.592,52.48 165.176,52.672 167.16,52.672 Z M193.886314,52.672 C195.678314,52.672 197.214314,52.304 198.494314,51.568 C199.774314,50.832 200.830314,49.888 201.662314,48.736 C202.494314,47.584 203.102314,46.4 203.486314,45.184 L203.486314,45.184 L202.622314,44.896 C201.630314,46.496 200.566314,47.536 199.430314,48.016 C198.294314,48.496 197.246314,48.736 196.286314,48.736 C195.294314,48.736 194.318314,48.424 193.358314,47.8 C192.398314,47.176 191.606314,46.176 190.982314,44.8 C190.358314,43.424 190.046314,41.632 190.046314,39.424 C190.046314,38.976 190.054314,38.544 190.070314,38.128 C190.086314,37.712 190.110314,37.312 190.142314,36.928 L190.124,37.168 L203.582314,37.168 C203.582314,33.5318519 202.840476,30.87493 201.3568,29.1972346 L201.182314,29.008 C199.582314,27.344 197.374314,26.512 194.558314,26.512 C192.286314,26.512 190.262314,27 188.486314,27.976 C186.710314,28.952 185.318314,30.432 184.310314,32.416 C183.302314,34.4 182.798314,36.88 182.798314,39.856 C182.798314,42.768 183.270314,45.168 184.214314,47.056 C185.158314,48.944 186.462314,50.352 188.126314,51.28 C189.790314,52.208 191.710314,52.672 193.886314,52.672 Z M190.020953,36.2195236 C190.199948,33.1746238 190.664401,30.9787826 191.414314,29.632 C192.198314,28.224 193.150314,27.52 194.270314,27.52 C195.070314,27.52 195.710314,27.92 196.190314,28.72 C196.670314,29.52 197.022314,30.584 197.246314,31.912 C197.470314,33.24 197.566314,34.688 197.534314,36.256 L197.534314,36.256 L190.018,36.256 L190.020953,36.2195236 Z M220.871918,52 L220.871918,50.992 C219.367918,50.992 218.239918,50.72 217.487918,50.176 C216.735918,49.632 216.359918,48.592 216.359918,47.056 L216.359918,47.056 L216.359918,34.336 C216.359918,33.472 216.551918,32.592 216.935918,31.696 C217.319918,30.8 217.839918,30.024 218.495918,29.368 C219.151918,28.712 219.895918,28.32 220.727918,28.192 C221.175918,28.032 221.623918,28.016 222.071918,28.144 C221.463918,28.56 220.959918,29.064 220.559918,29.656 C220.159918,30.248 219.959918,30.992 219.959918,31.888 C219.959918,32.816 220.271918,33.56 220.895918,34.12 C221.519918,34.68 222.391918,34.96 223.511918,34.96 C224.631918,34.96 225.535918,34.584 226.223918,33.832 C226.911918,33.08 227.255918,32.112 227.255918,30.928 C227.255918,30.192 227.103918,29.488 226.799918,28.816 C226.495918,28.144 226.023918,27.592 225.383918,27.16 C224.743918,26.728 223.911918,26.512 222.887918,26.512 C221.863918,26.512 220.935918,26.712 220.103918,27.112 C219.271918,27.512 218.535918,28.064 217.895918,28.768 C217.255918,29.472 216.743918,30.256 216.359918,31.12 L216.359918,31.12 L216.359918,26.656 C215.367918,26.88 214.287918,27.048 213.119918,27.16 C211.951918,27.272 210.695918,27.328 209.351918,27.328 C208.391918,27.328 207.399918,27.28 206.375918,27.184 L206.375918,27.184 L206.375918,28.192 C207.559918,28.192 208.367918,28.536 208.799918,29.224 C209.231918,29.912 209.447918,30.976 209.447918,32.416 L209.447918,32.416 L209.447918,47.536 C209.447918,48.88 209.215918,49.792 208.751918,50.272 C208.287918,50.752 207.495918,50.992 206.375918,50.992 L206.375918,50.992 L206.375918,52 C207.047918,51.968 208.039918,51.928 209.351918,51.88 C210.663918,51.832 211.959918,51.808 213.239918,51.808 C214.775918,51.808 216.247918,51.832 217.655918,51.88 C219.063918,51.928 220.135918,51.968 220.871918,52 L220.871918,52 Z M235.012676,22.192 C236.356676,22.192 237.420676,21.864 238.204676,21.208 C238.988676,20.552 239.380676,19.648 239.380676,18.496 C239.380676,17.344 238.988676,16.44 238.204676,15.784 C237.420676,15.128 236.356676,14.8 235.012676,14.8 C233.668676,14.8 232.604676,15.128 231.820676,15.784 C231.036676,16.44 230.644676,17.344 230.644676,18.496 C230.644676,19.648 231.036676,20.552 231.820676,21.208 C232.604676,21.864 233.668676,22.192 235.012676,22.192 Z M241.828676,52 L241.828676,50.992 C240.708676,50.992 239.916676,50.752 239.452676,50.272 C238.988676,49.792 238.756676,48.88 238.756676,47.536 L238.756676,47.536 L238.756676,26.656 C237.764676,26.88 236.684676,27.048 235.516676,27.16 C234.348676,27.272 233.092676,27.328 231.748676,27.328 C230.788676,27.328 229.796676,27.28 228.772676,27.184 L228.772676,27.184 L228.772676,28.192 C229.956676,28.192 230.764676,28.536 231.196676,29.224 C231.628676,29.912 231.844676,30.976 231.844676,32.416 L231.844676,32.416 L231.844676,47.536 C231.844676,48.88 231.612676,49.792 231.148676,50.272 C230.684676,50.752 229.892676,50.992 228.772676,50.992 L228.772676,50.992 L228.772676,52 C229.412676,51.968 230.372676,51.928 231.652676,51.88 C232.932676,51.832 234.196676,51.808 235.444676,51.808 C236.692676,51.808 237.924676,51.832 239.140676,51.88 C240.356676,51.928 241.252676,51.968 241.828676,52 L241.828676,52 Z M258.398232,52 L258.398232,50.992 C256.990232,50.992 255.886232,50.728 255.086232,50.2 C254.286232,49.672 253.886232,48.624 253.886232,47.056 L253.886232,47.056 L253.886232,28.192 L259.022232,28.192 L259.022232,27.232 L253.886232,27.232 L253.886232,22.864 C253.886232,20.976 253.950232,19.576 254.078232,18.664 C254.206232,17.752 254.446232,17.056 254.798232,16.576 C255.054232,16.192 255.390232,15.888 255.806232,15.664 C256.222232,15.44 256.750232,15.328 257.390232,15.328 C257.870232,15.328 258.254232,15.392 258.542232,15.52 C258.830232,15.648 259.022232,15.808 259.118232,16 C258.190232,16.256 257.486232,16.704 257.006232,17.344 C256.526232,17.984 256.286232,18.72 256.286232,19.552 C256.286232,20.608 256.630232,21.44 257.318232,22.048 C258.006232,22.656 258.878232,22.96 259.934232,22.96 C260.958232,22.96 261.782232,22.624 262.406232,21.952 C263.030232,21.28 263.342232,20.512 263.342232,19.648 C263.342232,18.848 263.182232,18.136 262.862232,17.512 C262.542232,16.888 262.158232,16.4 261.710232,16.048 C261.070232,15.568 260.334232,15.184 259.502232,14.896 C258.670232,14.608 257.694232,14.464 256.574232,14.464 C255.230232,14.464 253.974232,14.696 252.806232,15.16 C251.638232,15.624 250.702232,16.192 249.998232,16.864 C248.878232,17.952 248.094232,19.24 247.646232,20.728 C247.198232,22.216 246.974232,24.384 246.974232,27.232 L246.974232,27.232 L243.710232,27.232 L243.710232,28.192 L246.974232,28.192 L246.974232,47.536 C246.974232,48.88 246.742232,49.792 246.278232,50.272 C245.814232,50.752 245.022232,50.992 243.902232,50.992 L243.902232,50.992 L243.902232,52 C244.510232,51.968 245.398232,51.928 246.566232,51.88 C247.734232,51.832 248.926232,51.808 250.142232,51.808 C251.806232,51.808 253.390232,51.832 254.894232,51.88 C256.398232,51.928 257.566232,51.968 258.398232,52 L258.398232,52 Z" id="Serif" fill="#8036CA"></path>
            <path d="M19.2,52.672 C20.64,52.672 22.016,52.44 23.328,51.976 C24.64,51.512 25.888,50.944 27.072,50.272 C27.84,49.824 28.408,49.544 28.776,49.432 C29.144,49.32 29.44,49.264 29.664,49.264 C30.144,49.264 30.488,49.584 30.696,50.224 C30.904,50.864 31.024,51.456 31.056,52 L31.056,52 L32.016,52 L32.016,42.496 C32.016,40.704 32.152,39.584 32.424,39.136 C32.696,38.688 33.28,38.432 34.176,38.368 L34.176,38.368 L34.176,37.408 C33.472,37.44 32.56,37.472 31.44,37.504 C30.32,37.536 29.088,37.552 27.744,37.552 C26.88,37.552 25.936,37.544 24.912,37.528 C23.888,37.512 22.904,37.496 21.96,37.48 C21.016,37.464 20.208,37.44 19.536,37.408 L19.536,37.408 L19.536,38.368 C20.88,38.4 21.904,38.544 22.608,38.8 C23.312,39.056 23.784,39.544 24.024,40.264 C24.264,40.984 24.384,42.08 24.384,43.552 L24.384,43.552 L24.384,48.256 C24.384,48.864 24.304,49.352 24.144,49.72 C23.984,50.088 23.68,50.432 23.232,50.752 C22.88,51.008 22.416,51.232 21.84,51.424 C21.264,51.616 20.592,51.712 19.824,51.712 C16.848,51.712 14.568,50.384 12.984,47.728 C11.4,45.072 10.608,40.864 10.608,35.104 C10.608,32.992 10.8,30.952 11.184,28.984 C11.568,27.016 12.16,25.248 12.96,23.68 C13.76,22.112 14.784,20.872 16.032,19.96 C17.28,19.048 18.784,18.592 20.544,18.592 C21.696,18.592 22.84,18.8 23.976,19.216 C25.112,19.632 26.064,20.208 26.832,20.944 C28.08,21.968 28.936,23.192 29.4,24.616 C29.864,26.04 30.208,27.712 30.432,29.632 L30.432,29.632 L31.536,29.632 C31.536,26.688 31.552,24.328 31.584,22.552 C31.616,20.776 31.664,19.264 31.728,18.016 L31.728,18.016 L30.624,18.016 C30.432,19.936 30.032,20.896 29.424,20.896 C29.168,20.896 28.848,20.752 28.464,20.464 C27.376,19.6 26.144,18.864 24.768,18.256 C23.392,17.648 21.616,17.344 19.44,17.344 C16.048,17.344 13.048,18.096 10.44,19.6 C7.832,21.104 5.784,23.2 4.296,25.888 C2.808,28.576 2.064,31.744 2.064,35.392 C2.064,40.832 3.52,45.072 6.432,48.112 C9.344,51.152 13.6,52.672 19.2,52.672 Z M54.6143379,52.336 C55.7023379,52.336 56.6863379,52.184 57.5663379,51.88 C58.4463379,51.576 59.2223379,51.136 59.8943379,50.56 L59.8943379,50.56 L59.4143379,49.744 C59.1583379,49.968 58.8863379,50.16 58.5983379,50.32 C58.3103379,50.48 58.0063379,50.56 57.6863379,50.56 C57.3023379,50.56 57.0303379,50.4 56.8703379,50.08 C56.7103379,49.76 56.6303379,49.216 56.6303379,48.448 L56.6303379,48.448 L56.6303379,35.392 C56.6303379,33.76 56.5183379,32.408 56.2943379,31.336 C56.0703379,30.264 55.5903379,29.36 54.8543379,28.624 C54.0543379,27.824 53.0623379,27.272 51.8783379,26.968 C50.6943379,26.664 49.3663379,26.512 47.8943379,26.512 C46.4223379,26.512 45.0543379,26.656 43.7903379,26.944 C42.5263379,27.232 41.4463379,27.632 40.5503379,28.144 C39.7183379,28.688 39.0703379,29.264 38.6063379,29.872 C38.1423379,30.48 37.9103379,31.248 37.9103379,32.176 C37.9103379,33.2 38.2063379,34.072 38.7983379,34.792 C39.3903379,35.512 40.2623379,35.872 41.4143379,35.872 C42.4383379,35.872 43.3263379,35.552 44.0783379,34.912 C44.8303379,34.272 45.2063379,33.408 45.2063379,32.32 C45.2063379,31.488 44.9583379,30.744 44.4623379,30.088 C43.9663379,29.432 43.2703379,28.944 42.3743379,28.624 C42.7903379,28.208 43.3183379,27.912 43.9583379,27.736 C44.5983379,27.56 45.2383379,27.472 45.8783379,27.472 C46.7743379,27.472 47.5023379,27.648 48.0623379,28 C48.6223379,28.352 49.0383379,28.856 49.3103379,29.512 C49.5823379,30.168 49.7183379,30.912 49.7183379,31.744 L49.7183379,31.744 L49.7183379,35.488 C49.7183379,36.224 49.4063379,36.832 48.7823379,37.312 C48.1583379,37.792 47.3423379,38.216 46.3343379,38.584 C45.3263379,38.952 44.2703379,39.32 43.1663379,39.688 C42.0623379,40.056 41.0143379,40.52 40.0223379,41.08 C39.0303379,41.64 38.2223379,42.352 37.5983379,43.216 C36.9743379,44.08 36.6623379,45.2 36.6623379,46.576 C36.6623379,48.176 37.1423379,49.536 38.1023379,50.656 C39.0623379,51.776 40.6143379,52.336 42.7583379,52.336 C44.3263379,52.336 45.6943379,52.016 46.8623379,51.376 C48.0303379,50.736 49.0143379,49.76 49.8143379,48.448 C49.8463379,49.472 50.1743379,50.376 50.7983379,51.16 C51.4223379,51.944 52.6943379,52.336 54.6143379,52.336 Z M46.4543379,49.264 C45.6223379,49.264 44.9183379,48.968 44.3423379,48.376 C43.7663379,47.784 43.4783379,46.8 43.4783379,45.424 C43.4783379,44.144 43.7183379,43.12 44.1983379,42.352 C44.6783379,41.584 45.2783379,40.952 45.9983379,40.456 C46.7183379,39.96 47.4223379,39.496 48.1103379,39.064 C48.7983379,38.632 49.3343379,38.096 49.7183379,37.456 L49.7183379,37.456 L49.7183379,47.296 C49.2063379,48.032 48.6863379,48.544 48.1583379,48.832 C47.6303379,49.12 47.0623379,49.264 46.4543379,49.264 Z M70.6366992,52.672 C72.4286992,52.672 73.8446992,52.208 74.8846992,51.28 C75.9246992,50.352 76.7006992,49.168 77.2126992,47.728 L77.2126992,47.728 L76.3966992,47.296 C75.9486992,48.352 75.4366992,49.096 74.8606992,49.528 C74.2846992,49.96 73.7086992,50.176 73.1326992,50.176 C72.4286992,50.176 71.9006992,49.976 71.5486992,49.576 C71.1966992,49.176 71.0206992,48.496 71.0206992,47.536 L71.0206992,47.536 L71.0206992,28.144 L76.6846992,28.144 L76.6846992,27.184 L71.0206992,27.184 L71.0206992,19.312 C70.0286992,19.856 68.9646992,20.248 67.8286992,20.488 C66.6926992,20.728 65.4526992,20.848 64.1086992,20.848 L64.1086992,20.848 L64.1086992,27.184 L60.0766992,27.184 L60.0766992,28.144 L64.1086992,28.144 L64.1086992,44.368 C64.1086992,46.032 64.2206992,47.384 64.4446992,48.424 C64.6686992,49.464 65.1326992,50.336 65.8366992,51.04 C66.3806992,51.584 67.0526992,51.992 67.8526992,52.264 C68.6526992,52.536 69.5806992,52.672 70.6366992,52.672 Z M88.3295039,52.672 C89.9935039,52.672 91.5055039,52.384 92.8655039,51.808 C94.2255039,51.232 95.3215039,50.408 96.1535039,49.336 C96.9855039,48.264 97.4015039,47.008 97.4015039,45.568 C97.4015039,43.648 96.8495039,42.088 95.7455039,40.888 C94.6415039,39.688 93.2895039,38.496 91.6895039,37.312 C90.6975039,36.576 89.7455039,35.88 88.8335039,35.224 C87.9215039,34.568 87.1775039,33.88 86.6015039,33.16 C86.0255039,32.44 85.7375039,31.6 85.7375039,30.64 C85.7375039,29.648 86.0575039,28.888 86.6975039,28.36 C87.3375039,27.832 88.1215039,27.568 89.0495039,27.568 C90.3935039,27.568 91.4895039,27.936 92.3375039,28.672 C93.1855039,29.408 93.8335039,30.352 94.2815039,31.504 C94.7295039,32.656 95.0335039,33.824 95.1935039,35.008 L95.1935039,35.008 L96.2015039,35.008 C96.2015039,32.864 96.2175039,31.144 96.2495039,29.848 C96.2815039,28.552 96.3295039,27.456 96.3935039,26.56 L96.3935039,26.56 L95.3855039,26.56 C95.1295039,28.256 94.4575039,28.736 93.3695039,28 C92.9215039,27.68 92.1935039,27.352 91.1855039,27.016 C90.1775039,26.68 89.0015039,26.512 87.6575039,26.512 C86.2175039,26.512 84.8655039,26.76 83.6015039,27.256 C82.3375039,27.752 81.3215039,28.496 80.5535039,29.488 C79.7855039,30.48 79.4015039,31.696 79.4015039,33.136 C79.4015039,34.384 79.6895039,35.496 80.2655039,36.472 C80.8415039,37.448 81.5855039,38.344 82.4975039,39.16 C83.4095039,39.976 84.3775039,40.8 85.4015039,41.632 C86.8095039,42.72 87.9695039,43.728 88.8815039,44.656 C89.7935039,45.584 90.2495039,46.752 90.2495039,48.16 C90.2495039,49.376 89.8975039,50.248 89.1935039,50.776 C88.4895039,51.304 87.7215039,51.568 86.8895039,51.568 C85.5455039,51.568 84.4335039,51.192 83.5535039,50.44 C82.6735039,49.688 81.9775039,48.648 81.4655039,47.32 C80.9535039,45.992 80.6015039,44.464 80.4095039,42.736 L80.4095039,42.736 L79.4015039,42.736 C79.4015039,45.168 79.3855039,47.12 79.3535039,48.592 C79.3215039,50.064 79.2735039,51.312 79.2095039,52.336 L79.2095039,52.336 L80.2175039,52.336 C80.3455039,51.76 80.5295039,51.312 80.7695039,50.992 C81.0095039,50.672 81.2895039,50.56 81.6095039,50.656 C81.9295039,50.784 82.2735039,50.936 82.6415039,51.112 C83.0095039,51.288 83.4015039,51.472 83.8175039,51.664 C84.3615039,51.952 85.0095039,52.192 85.7615039,52.384 C86.5135039,52.576 87.3695039,52.672 88.3295039,52.672 Z M102.921475,52.768 C103.401475,52.352 103.993475,51.992 104.697475,51.688 C105.401475,51.384 106.169475,51.168 107.001475,51.04 C107.833475,50.912 108.649475,50.912 109.449475,51.04 L109.138,50.998 L109.281475,51.112 C109.681475,51.4186667 110.109252,51.6753333 110.564808,51.882 L110.841475,52 C111.961475,52.448 113.177475,52.672 114.489475,52.672 C116.473475,52.672 118.297475,52.224 119.961475,51.328 C121.625475,50.432 122.961475,48.976 123.969475,46.96 C124.977475,44.944 125.481475,42.272 125.481475,38.944 C125.481475,34.72 124.657475,31.592 123.009475,29.56 C121.361475,27.528 119.289475,26.512 116.793475,26.512 C114.969475,26.512 113.369475,26.984 111.993475,27.928 C110.961475,28.636 110.154475,29.5915 109.572475,30.7945 L109.449,31.062 L109.449475,14.464 C108.622808,14.6506667 107.729475,14.7984444 106.769475,14.9073333 L106.185475,14.968 C105.001475,15.08 103.753475,15.136 102.441475,15.136 C101.481475,15.136 100.489475,15.088 99.4654746,14.992 L99.4654746,14.992 L99.4654746,16 C100.649475,16 101.457475,16.344 101.889475,17.032 C102.321475,17.72 102.537475,18.784 102.537475,20.224 L102.537475,20.224 L102.537475,49.648 C102.537475,50.096 102.513475,50.544 102.465475,50.992 C102.417475,51.44 102.329475,51.888 102.201475,52.336 L102.201475,52.336 L102.921475,52.768 Z M113.001475,51.664 C112.233475,51.664 111.457475,51.488 110.673475,51.136 C110.237919,50.9404444 109.834462,50.6905679 109.463104,50.3863704 L109.449,50.375 L109.449,32.736 L109.493208,32.5312 C109.720763,31.5712 110.126097,30.7712 110.709208,30.1312 L110.889475,29.944 C111.817475,29.032 112.841475,28.576 113.961475,28.576 C114.857475,28.576 115.625475,28.92 116.265475,29.608 C116.905475,30.296 117.393475,31.448 117.729475,33.064 C118.065475,34.68 118.233475,36.864 118.233475,39.616 C118.233475,43.68 117.801475,46.704 116.937475,48.688 C116.073475,50.672 114.761475,51.664 113.001475,51.664 Z M133.72783,61.024 C134.65583,61.024 135.47183,60.92 136.17583,60.712 C136.87983,60.504 137.45583,60.208 137.90383,59.824 C138.70383,59.184 139.40783,58.048 140.01583,56.416 L140.01583,56.416 L141.83983,51.28 L148.60783,32.272 C149.11983,30.864 149.64783,29.864 150.19183,29.272 C150.73583,28.68 151.31183,28.304 151.91983,28.144 L151.91983,28.144 L151.91983,27.184 C151.50383,27.216 150.94383,27.248 150.23983,27.28 C149.53583,27.312 148.86383,27.328 148.22383,27.328 C147.58383,27.328 146.83183,27.312 145.96783,27.28 C145.10383,27.248 144.30383,27.216 143.56783,27.184 L143.56783,27.184 L143.56783,28.144 C145.10383,28.272 146.17583,28.936 146.78383,30.136 C147.39183,31.336 147.24783,33.232 146.35183,35.824 L146.35183,35.824 L143.054,45.046 L137.18383,30.88 C136.829369,30.0529231 136.72712,29.4507929 136.877085,29.0736095 L136.91983,28.984 C137.12783,28.616 137.51183,28.392 138.07183,28.312 C138.63183,28.232 139.23183,28.192 139.87183,28.192 L139.87183,28.192 L139.87183,27.184 C138.91183,27.248 137.88783,27.312 136.79983,27.376 C135.71183,27.44 134.51183,27.472 133.19983,27.472 C132.14383,27.472 131.04783,27.448 129.91183,27.4 C128.77583,27.352 127.67983,27.28 126.62383,27.184 L126.62383,27.184 L126.62383,28.192 C127.00783,28.192 127.46383,28.328 127.99183,28.6 C128.51983,28.872 129.05583,29.632 129.59983,30.88 L129.59983,30.88 L139.789,54.018 L139.00783,56.32 C138.564753,57.5310769 138.012611,58.4422249 137.351404,59.0534438 L137.18383,59.2 C136.44783,59.808 135.59983,60.112 134.63983,60.112 L134.63983,60.112 L134.11183,60.112 C133.88783,60.112 133.69583,60.096 133.53583,60.064 C134.33583,59.776 134.93583,59.344 135.33583,58.768 C135.73583,58.192 135.93583,57.584 135.93583,56.944 C135.93583,55.952 135.59983,55.2 134.92783,54.688 C134.25583,54.176 133.39183,53.92 132.33583,53.92 C131.18383,53.92 130.25583,54.216 129.55183,54.808 C128.84783,55.4 128.49583,56.192 128.49583,57.184 C128.49583,58.08 128.76783,58.816 129.31183,59.392 C129.85583,59.968 130.53583,60.384 131.35183,60.64 C132.16783,60.896 132.95983,61.024 133.72783,61.024 Z" id="Gatsby" fill="#302F42"></path>
        </g>
    </g>
</svg>