<?xml version="1.0" standalone="no"?>
<!DOCTYPE svg PUBLIC "-//W3C//DTD SVG 20010904//EN"
 "http://www.w3.org/TR/2001/REC-SVG-20010904/DTD/svg10.dtd">
<svg version="1.0" xmlns="http://www.w3.org/2000/svg"
 width="500.000000pt" height="500.000000pt" viewBox="0 0 500.000000 500.000000"
 preserveAspectRatio="xMidYMid meet">

<g transform="translate(0.000000,500.000000) scale(0.100000,-0.100000)"
fill="#000000" stroke="none">
<path d="M1160 3678 c0 -37 1 -38 38 -38 71 0 156 -21 191 -47 64 -49 65 -56
71 -483 l5 -385 43 -3 42 -3 0 378 1 378 62 -160 c35 -88 101 -258 147 -377
l85 -218 177 0 c136 0 178 3 178 13 0 6 -20 64 -44 127 -24 63 -94 248 -156
410 -61 162 -125 329 -141 370 l-29 75 -335 0 -335 0 0 -37z"/>
<path d="M3720 3710 l-245 -5 -182 -485 c-100 -267 -182 -488 -182 -492 -1 -5
18 -8 42 -8 l43 0 128 348 c71 191 135 358 142 372 11 21 13 -36 14 -347 l0
-373 175 0 175 0 0 360 c0 223 4 378 11 410 21 97 77 135 219 147 59 5 69 9
72 27 9 52 2 56 -85 54 -45 -1 -192 -5 -327 -8z"/>
<path d="M1300 2500 c0 -33 4 -60 10 -60 6 0 10 27 10 60 0 33 -4 60 -10 60
-6 0 -10 -27 -10 -60z"/>
<path d="M1370 2541 c7 -13 10 -39 6 -59 -3 -24 -2 -32 5 -25 17 17 14 73 -6
91 -16 16 -17 16 -5 -7z"/>
<path d="M1530 2555 c0 -24 37 -115 46 -115 8 0 3 20 -11 55 -22 54 -35 77
-35 60z"/>
<path d="M1694 2501 c11 -33 24 -57 28 -55 4 3 -1 27 -12 55 -11 27 -20 52
-20 54 0 3 -4 5 -9 5 -4 0 1 -27 13 -59z"/>
<path d="M1868 2500 c-1 -33 0 -60 5 -60 4 0 7 27 7 60 0 77 -7 77 -12 0z"/>
<path d="M2181 2551 c-1 -21 33 -111 42 -111 10 0 2 27 -24 85 -10 22 -18 34
-18 26z"/>
<path d="M2366 2508 c45 -65 43 -62 49 -57 7 7 -64 109 -75 109 -6 0 6 -24 26
-52z"/>
<path d="M2528 2501 c-2 -40 1 -61 8 -61 7 0 10 20 8 56 -4 76 -11 79 -16 5z"/>
<path d="M2595 2506 c0 -42 3 -52 13 -44 6 6 12 23 12 37 0 15 -6 35 -12 44
-11 15 -13 9 -13 -37z"/>
<path d="M2820 2554 c0 -22 32 -116 37 -110 7 7 -16 97 -28 111 -6 5 -9 5 -9
-1z"/>
<path d="M2894 2534 c3 -18 12 -47 21 -65 l15 -34 -4 31 c-3 18 -12 47 -21 65
l-15 34 4 -31z"/>
<path d="M3070 2500 c0 -33 4 -60 10 -60 6 0 10 27 10 60 0 33 -4 60 -10 60
-6 0 -10 -27 -10 -60z"/>
<path d="M3265 2533 c49 -75 65 -97 65 -85 0 16 -63 112 -74 112 -4 0 0 -12 9
-27z"/>
<path d="M3440 2500 c0 -33 4 -60 10 -60 6 0 10 27 10 60 0 33 -4 60 -10 60
-6 0 -10 -27 -10 -60z"/>
<path d="M3510 2541 c7 -13 10 -39 6 -59 -4 -26 -2 -32 6 -24 17 17 13 71 -7
90 -16 16 -17 16 -5 -7z"/>
<path d="M3640 2525 c13 -22 20 -46 17 -60 -2 -16 0 -25 8 -25 9 0 10 11 5 38
-8 44 -27 82 -41 82 -6 0 -1 -16 11 -35z"/>
<path d="M1458 1788 c-3 -479 -4 -494 -24 -539 -12 -25 -37 -58 -56 -72 -33
-26 -137 -57 -190 -57 -26 0 -28 -3 -28 -37 l0 -38 365 0 365 0 0 38 c0 36 -1
37 -37 37 -108 1 -229 50 -263 105 -35 57 -40 135 -40 602 l0 453 -44 0 -45 0
-3 -492z"/>
<path d="M2025 2259 c4 -12 95 -247 202 -523 107 -275 213 -550 236 -609 41
-106 43 -108 72 -105 27 3 32 9 61 88 27 75 419 1125 431 1158 4 8 -8 12 -39
12 l-45 0 -138 -370 c-76 -203 -141 -367 -145 -365 -3 2 -69 168 -145 369
l-139 366 -178 0 c-178 0 -179 0 -173 -21z"/>
<path d="M3480 1838 c0 -244 -5 -476 -10 -516 -18 -138 -59 -176 -212 -195
l-88 -11 0 -36 0 -35 479 0 479 0 4 27 c3 15 2 31 -1 36 -3 4 -45 13 -93 20
-48 6 -100 18 -117 26 -41 22 -70 66 -81 127 -6 29 -10 255 -10 525 l0 474
-175 0 -175 0 0 -442z"/>
</g>
</svg>
