<?xml version="1.0" standalone="no"?>
<!DOCTYPE svg PUBLIC "-//W3C//DTD SVG 20010904//EN"
 "http://www.w3.org/TR/2001/REC-SVG-20010904/DTD/svg10.dtd">
<svg version="1.0" xmlns="http://www.w3.org/2000/svg"
 width="978.000000pt" height="364.000000pt" viewBox="0 0 978.000000 364.000000"
 preserveAspectRatio="xMidYMid meet">

<g transform="translate(0.000000,364.000000) scale(0.100000,-0.100000)"
fill="#000000" stroke="none">
<path d="M2690 2721 c-85 -45 -104 -134 -46 -220 l34 -50 -44 -36 c-24 -20
-51 -50 -59 -65 -32 -62 -11 -149 46 -193 75 -57 183 -59 278 -6 l53 31 32
-31 c23 -23 41 -31 67 -31 20 0 39 3 43 7 3 4 -16 30 -43 57 l-50 51 31 62
c17 35 31 80 32 100 1 36 -1 38 -31 41 -30 3 -32 1 -47 -50 -9 -29 -22 -63
-29 -75 -12 -22 -14 -21 -86 51 l-73 73 34 21 c62 39 90 77 95 129 4 39 0 55
-19 83 -45 67 -145 90 -218 51z m140 -71 c43 -43 20 -108 -52 -146 -35 -18
-31 -20 -62 24 -50 73 -24 142 54 142 27 0 47 -7 60 -20z m42 -430 c-60 -50
-154 -49 -204 0 -46 47 -31 117 34 159 l33 20 80 -80 80 -80 -23 -19z"/>
<path d="M5430 2636 c0 -58 -2 -106 -5 -106 -3 0 -19 10 -35 22 -37 27 -135
37 -180 18 -41 -17 -87 -71 -99 -117 -14 -50 -14 -171 0 -214 40 -120 174
-165 281 -94 l37 24 3 -22 c2 -18 9 -22 38 -22 l35 0 0 305 0 305 -37 3 -38 3
0 -105z m-50 -154 c60 -60 64 -193 9 -256 -56 -64 -154 -52 -191 24 -38 75
-11 228 44 250 13 5 42 9 66 9 35 1 49 -5 72 -27z"/>
<path d="M315 2717 c-3 -7 -4 -143 -3 -302 l3 -290 160 0 c150 0 163 1 202 24
49 28 77 64 92 117 15 52 14 277 -1 326 -15 50 -76 111 -126 126 -55 17 -321
16 -327 -1z m311 -80 c54 -28 69 -75 68 -212 -1 -195 -22 -221 -194 -232
l-100 -6 0 238 0 237 98 -4 c64 -3 108 -10 128 -21z"/>
<path d="M3376 2722 c-7 -12 104 -573 117 -589 5 -7 22 -13 37 -13 15 0 32 6
37 13 6 6 34 86 63 177 l53 165 43 -135 c71 -221 70 -220 109 -220 19 0 36 4
40 10 8 13 115 549 115 577 0 20 -5 23 -39 23 l-39 0 -43 -224 c-24 -124 -46
-223 -49 -220 -3 3 -25 71 -50 151 -25 81 -52 150 -61 156 -9 5 -27 7 -41 4
-22 -6 -29 -21 -68 -149 -52 -175 -56 -183 -65 -138 -3 19 -23 121 -43 225
l-37 190 -37 3 c-20 2 -39 -1 -42 -6z"/>
<path d="M6350 2424 l0 -305 38 3 37 3 5 217 5 216 75 -144 75 -145 34 3 c34
3 37 7 110 148 l76 145 3 -223 2 -223 38 3 37 3 0 300 0 300 -38 0 -39 0 -91
-172 c-51 -94 -94 -174 -97 -177 -3 -3 -48 76 -99 174 l-94 180 -38 0 -39 0 0
-306z"/>
<path d="M985 2566 c-38 -16 -87 -73 -83 -95 2 -9 15 -17 32 -19 22 -3 34 4
56 30 25 30 33 33 84 33 66 0 94 -21 98 -74 l3 -35 -84 -13 c-47 -7 -108 -24
-137 -37 -181 -83 -41 -299 149 -232 21 8 47 22 57 31 17 16 19 15 22 -7 2
-19 9 -23 38 -23 l35 0 3 163 c3 196 -8 237 -77 271 -47 25 -148 28 -196 7z
m190 -268 c-12 -79 -56 -118 -133 -118 -47 0 -92 33 -92 68 0 45 93 89 193 91
l39 1 -7 -42z"/>
<path d="M1363 2573 c-7 -2 -13 -10 -13 -17 0 -18 157 -405 171 -422 8 -10 26
-14 48 -12 l36 3 87 215 c75 186 85 217 72 229 -10 11 -20 13 -40 5 -24 -8
-36 -31 -93 -181 -36 -95 -69 -169 -72 -165 -3 4 -34 81 -68 172 -35 91 -68
168 -75 172 -12 9 -35 9 -53 1z"/>
<path d="M1965 2566 c-72 -32 -115 -114 -115 -219 0 -81 18 -134 60 -178 76
-80 219 -77 303 6 15 15 27 36 27 46 0 15 -8 19 -40 19 -21 0 -43 -6 -47 -13
-31 -52 -123 -63 -172 -21 -25 21 -51 74 -51 107 0 4 72 7 160 7 l160 0 0 49
c0 132 -74 211 -197 211 -32 -1 -71 -7 -88 -14z m146 -63 c30 -18 59 -67 59
-102 0 -20 -5 -21 -121 -21 l-121 0 6 33 c17 88 104 133 177 90z"/>
<path d="M4184 2560 c-74 -38 -104 -100 -104 -219 0 -89 21 -143 69 -184 81
-68 222 -59 291 20 37 42 35 57 -9 61 -24 3 -40 -4 -67 -27 -64 -57 -157 -35
-190 45 -27 65 -30 63 144 66 l157 3 -1 61 c-1 73 -28 128 -81 164 -50 35
-151 40 -209 10z m168 -66 c22 -20 48 -73 48 -99 0 -13 -19 -15 -121 -15
l-122 0 6 38 c4 25 18 48 43 71 33 30 41 33 81 28 24 -2 53 -13 65 -23z"/>
<path d="M4602 2572 c-9 -7 -12 -59 -10 -228 l3 -219 35 0 35 0 5 155 c3 97
10 163 18 177 20 36 53 53 102 53 49 0 82 -17 102 -53 8 -14 15 -81 18 -177
l5 -155 35 0 35 0 3 160 c2 150 1 163 -20 204 -31 60 -65 83 -132 89 -69 6
-96 -1 -135 -34 -28 -23 -31 -24 -31 -7 0 35 -37 54 -68 35z"/>
<path d="M5611 2571 c-12 -8 1 -46 73 -217 l87 -207 -36 -88 c-21 -48 -34 -92
-30 -98 7 -13 44 -14 62 -3 12 8 263 578 263 598 0 16 -27 25 -54 18 -17 -4
-36 -38 -90 -165 -38 -88 -70 -158 -73 -156 -2 3 -33 73 -68 158 -36 84 -70
156 -77 161 -17 10 -40 10 -57 -1z"/>
<path d="M7125 2566 c-71 -33 -106 -91 -113 -187 -10 -139 37 -226 135 -255
121 -35 232 17 264 125 16 54 7 188 -15 234 -30 61 -85 91 -170 95 -45 1 -82
-3 -101 -12z m157 -67 c41 -22 64 -108 53 -196 -6 -46 -13 -63 -41 -91 -32
-32 -38 -34 -86 -30 -43 5 -57 11 -79 37 -45 55 -49 179 -7 248 29 49 101 63
160 32z"/>
<path d="M7541 2566 c-8 -9 -11 -78 -9 -227 l3 -214 34 -3 c20 -2 37 2 42 10
5 7 9 79 9 160 0 139 1 148 23 174 18 21 35 27 82 33 58 6 60 7 63 37 2 21 -2
33 -13 37 -26 11 -118 -12 -142 -35 l-23 -21 0 25 c0 36 -46 52 -69 24z"/>
<path d="M7938 2560 c-80 -44 -118 -207 -75 -322 20 -51 72 -104 113 -114 46
-12 129 1 162 25 l32 22 0 -56 c0 -49 -4 -60 -29 -86 -26 -25 -37 -29 -86 -29
-67 0 -89 10 -110 51 -14 26 -21 30 -53 27 -32 -3 -37 -6 -34 -27 1 -13 12
-37 24 -53 64 -91 272 -91 337 0 33 47 41 116 41 348 0 204 -1 214 -20 224
-31 16 -60 3 -60 -26 l0 -25 -36 28 c-49 37 -150 44 -206 13z m181 -66 c33
-24 51 -74 51 -144 0 -110 -38 -160 -120 -160 -82 0 -120 50 -120 160 0 110
38 160 120 160 26 0 56 -7 69 -16z"/>
<path d="M8458 2560 c-43 -23 -68 -55 -68 -87 0 -36 45 -30 91 12 44 39 89 46
138 20 32 -16 41 -33 41 -75 0 -27 -2 -28 -66 -35 -100 -10 -164 -33 -201 -70
-70 -70 -29 -179 80 -207 56 -14 128 0 163 33 l22 20 6 -25 c5 -22 12 -26 42
-26 l35 0 -3 189 c-3 186 -3 190 -28 217 -14 14 -39 33 -57 40 -48 21 -150 17
-195 -6z m202 -251 c0 -45 -28 -98 -61 -114 -49 -26 -128 -15 -151 19 -14 20
-8 63 10 78 26 24 100 44 170 47 29 1 32 -1 32 -30z"/>
<path d="M8881 2566 c-8 -9 -11 -78 -9 -227 l3 -214 34 -3 c20 -2 37 2 42 10
5 7 9 80 9 162 l0 148 34 34 c27 27 42 34 75 34 22 0 52 -5 66 -12 47 -21 55
-53 55 -210 0 -79 4 -149 9 -156 5 -8 22 -12 42 -10 l34 3 3 129 c3 157 -9
225 -49 270 -39 46 -77 59 -148 54 -45 -3 -68 -11 -95 -32 l-36 -27 0 24 c0
35 -46 51 -69 23z"/>
<path d="M280 2092 c0 -4 14 -12 32 -17 21 -7 40 -23 53 -45 19 -34 20 -50 20
-580 0 -527 -1 -546 -20 -579 -20 -34 -27 -40 -75 -59 -19 -8 20 -11 153 -11
116 -1 176 2 172 9 -3 6 -14 10 -24 10 -26 0 -61 43 -72 87 -16 67 -23 491
-10 555 21 100 81 113 198 44 84 -49 135 -66 200 -66 64 0 116 22 142 59 22
32 35 81 21 81 -5 0 -10 -6 -10 -14 0 -8 -12 -24 -26 -35 -40 -32 -104 -27
-220 15 -121 43 -193 47 -254 13 -22 -12 -40 -26 -40 -31 0 -4 -4 -8 -10 -8
-6 0 -10 100 -10 281 l0 281 213 -4 c297 -7 416 -38 464 -124 l23 -39 0 93 0
92 -460 0 c-253 0 -460 -4 -460 -8z"/>
<path d="M5020 2090 c0 -5 8 -10 19 -10 33 0 68 -37 80 -85 6 -25 14 -109 18
-187 5 -120 4 -140 -8 -135 -151 65 -136 62 -279 62 -130 0 -137 -1 -200 -31
-128 -60 -214 -177 -245 -333 -36 -175 7 -346 118 -467 88 -97 230 -143 376
-123 69 10 169 55 214 97 l27 26 0 -52 0 -52 118 1 c90 0 111 3 92 11 -50 20
-55 25 -75 64 -19 37 -20 64 -25 629 l-5 590 -112 3 c-73 2 -113 -1 -113 -8z
m-61 -385 c56 -19 122 -66 155 -110 l27 -35 -3 -289 -3 -288 -30 -48 c-52 -83
-168 -145 -271 -145 -94 0 -198 59 -250 141 -111 177 -110 484 3 656 83 126
224 171 372 118z"/>
<path d="M6600 1977 c0 -141 -83 -257 -185 -257 -14 0 -25 -4 -25 -10 0 -6 27
-10 60 -10 l60 0 0 -425 c0 -358 2 -431 15 -455 33 -63 141 -56 197 14 30 36
20 42 -15 8 -38 -37 -62 -41 -77 -13 -6 13 -10 171 -10 445 l0 426 45 0 c25 0
45 5 45 10 0 6 -20 10 -45 10 l-45 0 0 155 c0 97 -4 155 -10 155 -5 0 -10 -24
-10 -53z"/>
<path d="M6920 1945 c-62 -66 8 -168 94 -135 30 11 60 68 49 97 -22 65 -99 85
-143 38z"/>
<path d="M1618 1721 c-75 -24 -116 -51 -171 -110 -133 -142 -167 -388 -82
-585 93 -216 368 -312 590 -207 224 106 316 424 197 681 -38 81 -141 181 -217
210 -83 32 -236 38 -317 11z m256 -16 c21 -9 59 -36 85 -60 89 -83 134 -212
134 -385 0 -218 -75 -375 -210 -441 -68 -34 -178 -34 -246 0 -135 66 -207 220
-207 440 0 252 94 414 265 462 41 11 133 3 179 -16z"/>
<path d="M3650 1730 c-36 -4 -122 -8 -192 -9 -78 -1 -128 -5 -128 -11 0 -5 10
-10 23 -10 12 0 32 -7 44 -15 44 -31 48 -68 48 -430 0 -393 -2 -401 -77 -435
l-43 -19 180 0 180 0 -40 18 c-75 34 -85 92 -85 537 l0 331 60 17 c63 18 183
23 240 11 86 -18 145 -70 174 -152 20 -57 31 -405 17 -556 -12 -132 -29 -175
-74 -184 -73 -15 -22 -23 140 -22 133 0 172 3 153 11 -48 19 -55 25 -75 59
-19 31 -20 57 -25 349 -5 304 -6 317 -29 368 -25 56 -70 98 -136 127 -46 20
-243 29 -355 15z"/>
<path d="M5753 1730 c-65 -13 -141 -50 -168 -82 -49 -58 -51 -149 -2 -183 30
-21 83 -19 107 5 23 23 26 50 5 50 -19 0 -35 31 -35 67 0 44 33 88 87 114 40
20 63 24 143 24 82 0 102 -4 144 -25 28 -14 59 -37 69 -51 27 -37 25 -94 -4
-126 -31 -33 -66 -46 -236 -93 -270 -75 -357 -144 -385 -308 -24 -139 28 -251
143 -310 53 -27 77 -34 129 -34 171 -3 272 86 341 302 l28 85 0 -125 c2 -194
36 -244 159 -238 l57 3 -29 15 c-16 8 -39 28 -50 43 -19 26 -21 45 -26 256 -5
246 -10 268 -65 293 -30 13 -83 2 -66 -15 6 -6 11 -45 11 -96 -1 -275 -136
-481 -316 -481 -140 0 -226 127 -202 301 11 82 38 139 90 191 61 61 132 92
319 137 90 22 175 49 189 59 95 70 33 166 -139 214 -70 19 -219 23 -298 8z"/>
<path d="M7568 1721 c-75 -24 -116 -51 -171 -110 -133 -142 -167 -388 -82
-585 93 -216 368 -312 590 -207 224 106 316 424 197 681 -38 81 -141 181 -217
210 -83 32 -236 38 -317 11z m256 -16 c21 -9 59 -36 85 -60 89 -83 134 -212
134 -385 0 -218 -75 -375 -210 -441 -68 -34 -178 -34 -246 0 -135 66 -207 220
-207 440 0 252 94 414 265 462 41 11 133 3 179 -16z"/>
<path d="M8595 1730 c-33 -4 -117 -8 -187 -9 -128 -1 -156 -9 -96 -26 21 -7
40 -23 53 -45 19 -33 20 -51 20 -390 0 -337 -1 -357 -20 -389 -20 -34 -27 -40
-75 -59 -19 -8 20 -11 153 -11 116 -1 176 2 172 9 -3 6 -14 10 -24 10 -26 0
-61 42 -72 87 -6 21 -13 203 -16 404 -6 360 -5 367 14 378 72 38 255 44 330
11 136 -60 158 -136 151 -523 -5 -297 -12 -326 -82 -357 l-41 -19 180 0 180 0
-43 19 c-72 33 -75 46 -81 410 -6 304 -7 317 -29 362 -27 55 -68 93 -132 122
-36 16 -69 20 -170 22 -69 1 -152 -1 -185 -6z"/>
<path d="M2310 1710 c0 -5 9 -10 21 -10 35 0 56 -18 75 -62 15 -37 18 -85 23
-353 7 -349 11 -367 85 -433 74 -65 187 -88 351 -71 55 6 170 14 255 18 128 6
149 9 121 17 -41 12 -69 46 -81 100 -5 21 -10 211 -10 422 l0 382 -115 0 c-70
0 -115 -4 -115 -10 0 -5 8 -10 19 -10 31 0 68 -37 80 -82 8 -27 14 -180 18
-415 l6 -372 -59 -17 c-82 -24 -224 -25 -286 -1 -55 21 -117 86 -138 144 -10
29 -15 127 -17 401 l-4 362 -115 0 c-69 0 -114 -4 -114 -10z"/>
<path d="M6810 1710 c0 -5 10 -10 23 -10 12 0 32 -7 44 -15 44 -31 48 -68 48
-430 0 -393 -2 -401 -77 -435 l-43 -19 180 0 180 0 -40 18 c-76 34 -85 91 -85
554 l0 347 -115 0 c-70 0 -115 -4 -115 -10z"/>
</g>
</svg>
