<?xml version="1.0" encoding="UTF-8"?>
<svg width="200px" height="44px" viewBox="0 0 200 44" version="1.1" xmlns="http://www.w3.org/2000/svg" xmlns:xlink="http://www.w3.org/1999/xlink">
    <!-- Generator: Sketch 51.3 (57544) - http://www.bohemiancoding.com/sketch -->
    <title>logo</title>
    <desc>Created with Sketch.</desc>
    <defs></defs>
    <g id="Page-1" stroke="none" stroke-width="1" fill="none" fill-rule="evenodd">
        <g id="logo">
            <path d="M5.006,42.584 C3.43799216,42.0519973 2.29000364,41.3520043 1.562,40.484 C0.83399636,39.6159957 0.47,38.6920049 0.47,37.712 C0.47,36.5359941 0.86199608,35.5070044 1.646,34.625 C2.43000392,33.7429956 3.32599496,33.0920021 4.334,32.672 C3.38199524,32.3639985 2.66100245,31.9440027 2.171,31.412 C1.68099755,30.8799973 1.436,30.1940042 1.436,29.354 C1.436,28.345995 1.83499601,27.4220042 2.633,26.582 C3.43100399,25.7419958 4.43199398,25.224001 5.636,25.028 C4.31999342,24.4119969 3.28400378,23.5510055 2.528,22.445 C1.77199622,21.3389945 1.394,20.0720071 1.394,18.644 C1.394,17.0199919 1.82099573,15.5780063 2.675,14.318 C3.52900427,13.0579937 4.63499321,12.0780035 5.993,11.378 C7.35100679,10.6779965 8.77199258,10.328 10.256,10.328 C12.1600095,10.328 13.9379917,10.8459948 15.59,11.882 C16.0100021,10.677994 16.6889953,9.69800378 17.627,8.942 C18.5650047,8.18599622 19.5799945,7.808 20.672,7.808 C21.3720035,7.808 21.917998,7.99699811 22.31,8.375 C22.702002,8.75300189 22.898,9.26399678 22.898,9.908 C22.898,10.300002 22.7510015,10.6849981 22.457,11.063 C22.1629985,11.4410019 21.7360028,11.63 21.176,11.63 C20.6999976,11.63 20.2940017,11.4900014 19.958,11.21 C19.6219983,10.9299986 19.4120004,10.5800021 19.328,10.16 C18.6559966,10.2440004 18.124002,10.5449974 17.732,11.063 C17.339998,11.5810026 17.0600008,12.2039964 16.892,12.932 C17.5920035,13.5760032 18.137998,14.3319957 18.53,15.2 C18.922002,16.0680043 19.118,16.9779952 19.118,17.93 C19.118,19.4700077 18.7120041,20.8559938 17.9,22.088 C17.0879959,23.3200062 16.0030068,24.2859965 14.645,24.986 C13.2869932,25.6860035 11.8240078,26.036 10.256,26.036 C9.89199818,26.036 9.4300028,26.0080003 8.87,25.952 C8.4499979,25.8679996 7.97400266,25.826 7.442,25.826 C6.51799538,25.826 5.74100315,26.028998 5.111,26.435 C4.48099685,26.841002 4.166,27.3379971 4.166,27.926 C4.166,28.7380041 4.67699489,29.2769987 5.699,29.543 C6.72100511,29.8090013 8.46398768,29.9839996 10.928,30.068 C14.3720172,30.2360008 16.9549914,30.7889953 18.677,31.727 C20.3990086,32.6650047 21.26,34.2119892 21.26,36.368 C21.26,37.7960071 20.763005,39.0419947 19.769,40.106 C18.774995,41.1700053 17.4870079,41.9819972 15.905,42.542 C14.3229921,43.1020028 12.6780085,43.382 10.97,43.382 C8.56198796,43.382 6.57400784,43.1160027 5.006,42.584 Z M13.847,22.928 C14.645004,21.8639947 15.044,20.4780085 15.044,18.77 C15.044,16.8099902 14.6170043,15.1580067 13.763,13.814 C12.9089957,12.4699933 11.7120077,11.798 10.172,11.798 C8.68799258,11.798 7.5260042,12.3509945 6.686,13.457 C5.8459958,14.5630055 5.426,15.9839913 5.426,17.72 C5.426,19.7640102 5.86699559,21.4089938 6.749,22.655 C7.63100441,23.9010062 8.8419923,24.524 10.382,24.524 C11.8940076,24.524 13.048996,23.9920053 13.847,22.928 Z M14.981,41.135 C16.1430058,40.728998 17.0319969,40.1830034 17.648,39.497 C18.2640031,38.8109966 18.572,38.0620041 18.572,37.25 C18.572,35.8219929 17.8930068,34.8420027 16.535,34.31 C15.1769932,33.7779973 13.1680133,33.4700004 10.508,33.386 C8.74399118,33.3299997 7.3020056,33.2180008 6.182,33.05 C5.42599622,33.5540025 4.8380021,34.1699964 4.418,34.898 C3.9979979,35.6260036 3.788,36.3959959 3.788,37.208 C3.788,38.5800069 4.43899349,39.6789959 5.741,40.505 C7.04300651,41.3310041 8.77198922,41.744 10.928,41.744 C12.4680077,41.744 13.8189942,41.541002 14.981,41.135 Z M23.771,31.286 C22.6929946,30.3619954 22.154,29.1580074 22.154,27.674 C22.154,26.0499919 22.8049935,24.6780056 24.107,23.558 C25.4090065,22.4379944 27.0469901,21.6050027 29.021,21.059 C30.9950099,20.5129973 32.9759901,20.2539999 34.964,20.282 L34.964,17.678 C34.964,15.8579909 34.6980027,14.4370051 34.166,13.415 C33.6339973,12.3929949 32.5000087,11.882 30.764,11.882 C29.8959957,11.882 29.0700039,12.0639982 28.286,12.428 C27.5019961,12.7920018 26.9280018,13.3379964 26.564,14.066 C26.9280018,14.458002 27.11,14.9899966 27.11,15.662 C27.11,16.0820021 26.9560015,16.4809981 26.648,16.859 C26.3399985,17.2370019 25.8920029,17.426 25.304,17.426 C24.7159971,17.426 24.2540017,17.2370019 23.918,16.859 C23.5819983,16.4809981 23.414,15.9840031 23.414,15.368 C23.414,14.4439954 23.7709964,13.5970039 24.485,12.827 C25.1990036,12.0569961 26.1929936,11.4480022 27.467,11 C28.7410064,10.5519978 30.1619922,10.328 31.73,10.328 C34.0820118,10.328 35.8179944,10.9509938 36.938,12.197 C38.0580056,13.4430062 38.6040001,15.4099866 38.576,18.098 L38.534,27.548 C38.534,28.4440045 38.4780006,29.395995 38.366,30.404 L41.348,30.236 L41.348,32 L35.342,32 C35.2579996,31.5799979 35.1600006,30.7820059 35.048,29.606 C33.0039898,31.6500102 30.8060118,32.672 28.454,32.672 C26.4099898,32.672 24.8490054,32.2100046 23.771,31.286 Z M32.318,29.669 C33.1860043,29.262998 34.0679955,28.6400042 34.964,27.8 C34.9359999,27.3799979 34.922,26.666005 34.922,25.658 L34.964,21.71 C32.6679885,21.7940004 30.624009,22.2629957 28.832,23.117 C27.039991,23.9710043 26.144,25.2799912 26.144,27.044 C26.144,28.0800052 26.4519969,28.8779972 27.068,29.438 C27.6840031,29.9980028 28.4679952,30.278 29.42,30.278 C30.4840053,30.278 31.4499957,30.075002 32.318,29.669 Z M44.636,24.944 L44.72,12.764 L41.486,12.806 L41.486,11 C42.8300067,10.9719999 43.9709953,10.363006 44.909,9.173 C45.8470047,7.98299405 46.5399978,6.63200756 46.988,5.12 L48.416,5.12 L48.416,11 L55.472,11 L55.472,12.638 L48.416,12.722 C48.3879999,17.0060214 48.3670001,19.9739917 48.353,21.626 C48.3389999,23.2780083 48.332,24.201999 48.332,24.398 C48.332,26.3860099 48.5699976,27.8629952 49.046,28.829 C49.5220024,29.7950048 50.3479941,30.278 51.524,30.278 C52.2520036,30.278 52.9729964,30.0540022 53.687,29.606 C54.4010036,29.1579978 55.0239973,28.5420039 55.556,27.758 L56.69,28.682 C55.5979945,30.3060081 54.5200053,31.3769974 53.456,31.895 C52.3919947,32.4130026 51.356005,32.672 50.348,32.672 C46.5119808,32.672 44.6079999,30.0960258 44.636,24.944 Z M62.204,32.147 C61.1119945,31.7969983 60.1740039,31.3560027 59.39,30.824 L59.558,32.294 L57.794,32.294 L57.542,25.07 L58.844,25.07 C58.9000003,26.2180057 59.2149971,27.2399955 59.789,28.136 C60.3630029,29.0320045 61.1189953,29.7389974 62.057,30.257 C62.9950047,30.7750026 63.9959947,31.034 65.06,31.034 C66.264006,31.034 67.3349953,30.7470029 68.273,30.173 C69.2110047,29.5989971 69.68,28.7800053 69.68,27.716 C69.68,26.9319961 69.4490023,26.2740027 68.987,25.742 C68.5249977,25.2099973 67.9510034,24.7690018 67.265,24.419 C66.5789966,24.0689982 65.6200062,23.6560024 64.388,23.18 C62.9039926,22.6199972 61.7140045,22.0950024 60.818,21.605 C59.9219955,21.1149975 59.1520032,20.4500042 58.508,19.61 C57.8639968,18.7699958 57.542,17.7060064 57.542,16.418 C57.542,15.4939954 57.7659978,14.5700046 58.214,13.646 C58.6620022,12.7219954 59.4179947,11.9380032 60.482,11.294 C61.5460053,10.6499968 62.9599912,10.328 64.724,10.328 C65.5920043,10.328 66.4809955,10.4679986 67.391,10.748 C68.3010046,11.0280014 69.1479961,11.4899968 69.932,12.134 L69.848,10.538 L71.612,10.538 L71.612,17.888 L70.268,17.888 C70.1839996,16.2639919 69.6870045,14.8570059 68.777,13.667 C67.8669954,12.476994 66.5860083,11.882 64.934,11.882 C63.6739937,11.882 62.6730037,12.1969969 61.931,12.827 C61.1889963,13.4570031 60.818,14.2059957 60.818,15.074 C60.818,15.8860041 61.0629975,16.5719972 61.553,17.132 C62.0430025,17.6920028 62.6519964,18.167998 63.38,18.56 C64.1080036,18.952002 65.0879938,19.3859976 66.32,19.862 C67.7760073,20.4500029 68.9519955,20.9959975 69.848,21.5 C70.7440045,22.0040025 71.5069969,22.6689959 72.137,23.495 C72.7670031,24.3210041 73.082,25.3219941 73.082,26.498 C73.082,27.8420067 72.7390034,28.9759954 72.053,29.9 C71.3669966,30.8240046 70.4710055,31.5169977 69.365,31.979 C68.2589945,32.4410023 67.0760063,32.672 65.816,32.672 C64.4999934,32.672 63.2960055,32.4970017 62.204,32.147 Z M81.746,32.084 C80.6539945,31.691998 79.7020041,31.0340046 78.89,30.11 L77.882,32 L76.412,32 L76.496,5.75 C76.496,4.68599468 76.5379996,3.77600378 76.622,3.02 L73.64,3.188 L73.64,1.424 C75.3200084,1.424 76.5169964,1.32600098 77.231,1.13 C77.9450036,0.93399902 78.497998,0.65400182 78.89,0.29 L80.108,0.29 L80.108,12.806 C80.8920039,12.0219961 81.8229946,11.4130022 82.901,10.979 C83.9790054,10.5449978 85.1619936,10.328 86.45,10.328 C88.242009,10.328 89.8659927,10.7619957 91.322,11.63 C92.7780073,12.4980043 93.9189959,13.7439919 94.745,15.368 C95.5710041,16.9920081 95.984,18.8679894 95.984,20.996 C95.984,23.3200116 95.480005,25.3639912 94.472,27.128 C93.463995,28.8920088 92.1200084,30.2569952 90.44,31.223 C88.7599916,32.1890048 86.9680095,32.672 85.064,32.672 C83.9439944,32.672 82.8380055,32.476002 81.746,32.084 Z M89.873,28.493 C91.0630059,26.8549918 91.658,24.7060133 91.658,22.046 C91.658,19.1059853 91.1120055,16.7610087 90.02,15.011 C88.9279945,13.2609913 87.3180106,12.386 85.19,12.386 C84.2659954,12.386 83.3490046,12.6029978 82.439,13.037 C81.5289955,13.4710022 80.7520032,14.0519964 80.108,14.78 L80.108,25.406 C80.108,29.1020185 81.7599835,30.95 85.064,30.95 C87.0800101,30.95 88.682994,30.1310082 89.873,28.493 Z M98.726,42.71 C98.1379971,42.2619978 97.844,41.6320041 97.844,40.82 C97.844,40.2879973 98.0189982,39.819002 98.369,39.413 C98.7190018,39.006998 99.1739972,38.804 99.734,38.804 C100.294003,38.804 100.706999,38.999998 100.973,39.392 C101.239001,39.784002 101.372,40.1899979 101.372,40.61 C101.372,40.8620013 101.358,41.0579993 101.33,41.198 C101.414,41.2540003 101.567999,41.282 101.792,41.282 C102.156002,41.282 102.526998,41.1420014 102.905,40.862 C103.283002,40.5819986 103.625998,40.1760027 103.934,39.644 C104.578003,38.5799947 105.557993,36.1860186 106.874,32.462 L100.322,18.434 C99.1459941,15.9139874 98.4040015,13.9820067 98.096,12.638 L96.08,12.722 L96.08,11 L104.774,11 L104.774,12.26 L104.606,12.26 C103.289993,12.3440004 102.632,12.9039948 102.632,13.94 C102.632,14.6400035 102.967997,15.7319926 103.64,17.216 L108.554,27.758 C109.394004,25.3779881 110.597992,21.8640232 112.166,17.216 C113.118005,14.4439861 113.803998,12.8900017 114.224,12.554 L111.326,12.722 L111.326,11 L117.92,11 L117.92,12.26 C116.967995,12.6240018 116.233003,13.204996 115.715,14.003 C115.196997,14.801004 114.630003,16.0399916 114.014,17.72 L108.764,32.378 C107.755995,35.2060141 106.923003,37.3409928 106.265,38.783 C105.606997,40.2250072 104.865004,41.3519959 104.039,42.164 C103.212996,42.9760041 102.198006,43.382 100.994,43.382 C100.069995,43.382 99.3140029,43.1580022 98.726,42.71 Z" id="gatsby" fill="#45454A"></path>
            <path d="M123.846,32.147 C122.753995,31.7969983 121.816004,31.3560027 121.032,30.824 L121.2,32.294 L119.436,32.294 L119.184,25.07 L120.486,25.07 C120.542,26.2180057 120.856997,27.2399955 121.431,28.136 C122.005003,29.0320045 122.760995,29.7389974 123.699,30.257 C124.637005,30.7750026 125.637995,31.034 126.702,31.034 C127.906006,31.034 128.976995,30.7470029 129.915,30.173 C130.853005,29.5989971 131.322,28.7800053 131.322,27.716 C131.322,26.9319961 131.091002,26.2740027 130.629,25.742 C130.166998,25.2099973 129.593003,24.7690018 128.907,24.419 C128.220997,24.0689982 127.262006,23.6560024 126.03,23.18 C124.545993,22.6199972 123.356004,22.0950024 122.46,21.605 C121.563996,21.1149975 120.794003,20.4500042 120.15,19.61 C119.505997,18.7699958 119.184,17.7060064 119.184,16.418 C119.184,15.4939954 119.407998,14.5700046 119.856,13.646 C120.304002,12.7219954 121.059995,11.9380032 122.124,11.294 C123.188005,10.6499968 124.601991,10.328 126.366,10.328 C127.234004,10.328 128.122995,10.4679986 129.033,10.748 C129.943005,11.0280014 130.789996,11.4899968 131.574,12.134 L131.49,10.538 L133.254,10.538 L133.254,17.888 L131.91,17.888 C131.826,16.2639919 131.329005,14.8570059 130.419,13.667 C129.508995,12.476994 128.228008,11.882 126.576,11.882 C125.315994,11.882 124.315004,12.1969969 123.573,12.827 C122.830996,13.4570031 122.46,14.2059957 122.46,15.074 C122.46,15.8860041 122.704998,16.5719972 123.195,17.132 C123.685002,17.6920028 124.293996,18.167998 125.022,18.56 C125.750004,18.952002 126.729994,19.3859976 127.962,19.862 C129.418007,20.4500029 130.593996,20.9959975 131.49,21.5 C132.386004,22.0040025 133.148997,22.6689959 133.779,23.495 C134.409003,24.3210041 134.724,25.3219941 134.724,26.498 C134.724,27.8420067 134.381003,28.9759954 133.695,29.9 C133.008997,30.8240046 132.113006,31.5169977 131.007,31.979 C129.900994,32.4410023 128.718006,32.672 127.458,32.672 C126.141993,32.672 124.938005,32.4970017 123.846,32.147 Z M141.729,31.307 C140.174992,30.3969955 138.950004,29.0950085 138.054,27.401 C137.157996,25.7069915 136.71,23.7540111 136.71,21.542 C136.71,19.5819902 137.157996,17.7410086 138.054,16.019 C138.950004,14.2969914 140.202992,12.9180052 141.813,11.882 C143.423008,10.8459948 145.24999,10.328 147.294,10.328 C148.890008,10.328 150.331994,10.6779965 151.62,11.378 C152.908006,12.0780035 153.929996,13.1209931 154.686,14.507 C155.442004,15.8930069 155.82,17.5939899 155.82,19.61 L141.036,19.862 C141.008,23.2220168 141.560994,25.8399906 142.695,27.716 C143.829006,29.5920094 145.585988,30.53 147.966,30.53 C149.254006,30.53 150.576993,30.1940034 151.935,29.522 C153.293007,28.8499966 154.335996,28.0240049 155.064,27.044 L156.072,27.884 C155.007995,29.5080081 153.629008,30.7119961 151.935,31.496 C150.240992,32.2800039 148.582008,32.672 146.958,32.672 C145.02599,32.672 143.283008,32.2170046 141.729,31.307 Z M151.872,18.098 C151.872,16.4179916 151.494004,14.976006 150.738,13.772 C149.981996,12.567994 148.848008,11.966 147.336,11.966 C143.863983,11.966 141.806003,14.0099796 141.162,18.098 L151.872,18.098 Z M158.058,30.74 C158.870004,30.74 159.450998,30.537002 159.801,30.131 C160.151002,29.724998 160.361,29.2070031 160.431,28.577 C160.501,27.9469969 160.536,26.9600067 160.536,25.616 L160.536,16.04 C160.536,14.8639941 160.591999,13.9540032 160.704,13.31 L157.722,13.436 L157.722,11.714 L159.024,11.714 C160.088005,11.714 160.857998,11.6230009 161.334,11.441 C161.810002,11.2589991 162.257998,10.972002 162.678,10.58 L163.896,10.58 C164.008001,11.6720055 164.078,13.0579916 164.106,14.738 C164.806003,13.5899943 165.806993,12.5680045 167.109,11.672 C168.411007,10.7759955 169.761993,10.328 171.162,10.328 C172.002004,10.328 172.701997,10.5519978 173.262,11 C173.822003,11.4480022 174.102,12.1059957 174.102,12.974 C174.102,13.4220022 173.927002,13.8699978 173.577,14.318 C173.226998,14.7660022 172.730003,14.99 172.086,14.99 C171.469997,14.99 170.966002,14.7590023 170.574,14.297 C170.181998,13.8349977 170.028,13.2820032 170.112,12.638 C169.047995,12.6099999 167.977005,13.0159958 166.899,13.856 C165.820995,14.6960042 164.904004,15.815993 164.148,17.216 L164.19,27.548 C164.19,28.8080063 164.134001,29.7599968 164.022,30.404 L166.668,30.278 L166.668,32 L158.058,32 L158.058,30.74 Z M177.348,5.687 C176.899998,5.19699755 176.676,4.61600336 176.676,3.944 C176.676,3.27199664 176.906998,2.68400252 177.369,2.18 C177.831002,1.67599748 178.355997,1.424 178.944,1.424 C179.588003,1.424 180.126998,1.66899755 180.561,2.159 C180.995002,2.64900245 181.212,3.2439965 181.212,3.944 C181.212,4.61600336 180.981002,5.19699755 180.519,5.687 C180.056998,6.17700245 179.518003,6.422 178.902,6.422 C178.313997,6.422 177.796002,6.17700245 177.348,5.687 Z M174.744,30.74 C175.556004,30.74 176.136998,30.537002 176.487,30.131 C176.837002,29.724998 177.047,29.2070031 177.117,28.577 C177.187,27.9469969 177.222,26.9600067 177.222,25.616 L177.222,16.04 C177.222,15.2279959 177.277999,14.318005 177.39,13.31 L174.408,13.478 L174.408,11.714 C176.060008,11.714 177.242996,11.616001 177.957,11.42 C178.671004,11.223999 179.223998,10.9440018 179.616,10.58 L180.834,10.58 L180.834,27.548 C180.834,28.8080063 180.778001,29.7599968 180.666,30.404 L183.312,30.278 L183.312,32 L174.744,32 L174.744,30.74 Z M185.256,30.74 C186.068004,30.74 186.648998,30.537002 186.999,30.131 C187.349002,29.724998 187.559,29.2070031 187.629,28.577 C187.699,27.9469969 187.734,26.9600067 187.734,25.616 L187.692,12.806 L184.248,12.89 L184.248,11 L187.692,11 L187.692,10.118 C187.692,6.86998376 188.286994,4.38500861 189.477,2.663 C190.667006,0.94099139 192.591987,0.08 195.252,0.08 C196.316005,0.08 197.330995,0.34599734 198.297,0.878 C199.263005,1.41000266 199.746,2.17999496 199.746,3.188 C199.746,3.7480028 199.585002,4.20299825 199.263,4.553 C198.940998,4.90300175 198.500003,5.078 197.94,5.078 C197.379997,5.078 196.953001,4.88900189 196.659,4.511 C196.364999,4.13299811 196.218,3.74800196 196.218,3.356 C196.218,2.96399804 196.287999,2.61400154 196.428,2.306 C196.231999,2.08199888 195.966002,1.90700063 195.63,1.781 C195.293998,1.65499937 194.958002,1.592 194.622,1.592 C193.417994,1.592 192.564003,2.07499517 192.06,3.041 C191.555997,4.00700483 191.304,5.189993 191.304,6.59 L191.304,11 L196.974,11 L196.974,12.638 L191.304,12.764 L191.346,27.548 C191.346,28.8080063 191.290001,29.7599968 191.178,30.404 L193.824,30.278 L193.824,32 L185.256,32 L185.256,30.74 Z" id="serif" fill="#1C3ED3"></path>
        </g>
    </g>
</svg>