<svg height="1200" viewBox="0 0 1600 1200" width="1600" xmlns="http://www.w3.org/2000/svg"><g fill="#e8e8e8"><path d="m228.4 1020.2c49.2 2.2 98.4 3.3 147.6 3.2 1.9 0 1.9-3 0-3-49.2.1-98.4-1-147.6-3.2-1.9-.1-1.9 2.9 0 3zm150.6-74.4c7.7 28.9 14.9 58 21.5 87.2.4 1.9 3.3 1.1 2.9-.8-6.7-29.2-13.8-58.3-21.5-87.2-.5-1.8-3.4-1-2.9.8zm134 2.2c-2.8 27.5-5.6 55.1-8.3 82.6-.2 1.9 2.8 1.9 3 0 2.8-27.5 5.6-55.1 8.3-82.6.1-1.9-2.9-1.9-3 0z"/><path d="m401.3 1035.7c17.5 3.1 35.2 4.5 53 4 17-.5 35.6-1.8 51.8-7.2 1.8-.6 1-3.5-.8-2.9-16.1 5.3-34.2 6.6-51 7.1-17.5.5-35-.9-52.2-3.9-1.9-.4-2.7 2.5-.8 2.9zm-21.1-88.9c20.7 5.8 43.2 5.9 64.6 6 23 .2 46-1.1 68.8-3.7 1.9-.2 1.9-3.2 0-3-22.2 2.6-44.5 3.8-66.8 3.7-21.7-.1-44.7-.1-65.8-5.9-1.9-.5-2.7 2.4-.8 2.9z"/><path d="m371.6 936.5c.2 1.9.4 3.9.6 5.8.1 1.2.1 2.7.6 3.8 1.2 2.6 5.2 1.7 7.5 1.7 1.9 0 1.9-3 0-3h-3.4c-1.5 0-1.5-.3-1.6-1.8-.2-2.2-.4-4.3-.6-6.5-.3-1.9-3.3-2-3.1 0z"/><path d="m373.6 938.1c25 2.9 50.1 4.3 75.3 4.5 12.4.1 24.8-.1 37.3-.5 6.2-.2 12.4-.5 18.6-.8 2.9-.1 6.9-1.1 9.8-.5 3.5.6 3.3 3.6 3.7 6.7.3-.6.7-1.2 1-1.8h-3.9c-1.9-.4-2.7 2.5-.8 2.9 2 .4 3.5.4 5.4 0 .9-.2 1.2-1.1 1-1.8-.5-3.5-.1-7.9-4.3-8.8-2.5-.6-5.6.1-8.2.2-3.3.2-6.5.3-9.8.5-14 .6-28.1 1-42.2 1-27.8 0-55.5-1.3-83.1-4.6-1.7-.2-1.7 2.8.2 3zm21.7 72.7c8 10.5 17.4 19.6 28 27.4 1.6 1.1 3.1-1.5 1.5-2.6-10.2-7.5-19.3-16.3-27-26.4-1.1-1.5-3.7 0-2.5 1.6zm-6.7-30.5c15.6 22.5 34.8 42.2 57 58.3 1.6 1.1 3.1-1.5 1.5-2.6-21.7-15.8-40.6-35.2-55.9-57.2-1.1-1.6-3.7-.1-2.6 1.5zm-6.1-26.8c27 32 57 61.9 92.8 84.1 1.6 1 3.2-1.6 1.5-2.6-35.6-22-65.4-51.7-92.2-83.6-1.2-1.5-3.3.7-2.1 2.1zm28.7-1.7c25.7 29.9 54.2 58.3 86 81.7 1.6 1.1 3.1-1.5 1.5-2.6-31.6-23.2-59.9-51.6-85.4-81.2-1.3-1.5-3.4.6-2.1 2.1zm32.8 2.1c17.4 21.3 37.4 40.3 59.6 56.6 1.6 1.1 3.1-1.5 1.5-2.6-22-16.1-41.8-35-59-56.1-1.2-1.5-3.3.6-2.1 2.1zm26.8-1.1c11.2 12.6 24 23.4 38.2 32.5 1.6 1 3.1-1.6 1.5-2.6-14-8.9-26.6-19.7-37.6-32-1.3-1.5-3.4.6-2.1 2.1z"/><path d="m332.4 788c6.5 13.7 10.9 28.1 13.4 43.1.1.7.8 1.1 1.4 1.1s3.8-.1 4 .9c.1.4-1.9 2.7-2.1 3.2-.6 1.6-.6 3.5 0 5.1.8 1.9 2.3 3.2 4.1 3.9.6.3 1.3.4 2 .5.6.1 1.2.1 1.8 0 .8-.1.7 0-.2.4-1 1.5-2.4 1.7-2.8 3.9-.3 2.1.7 4.1 1.5 5.9 3.3 7 5.2 14.4 7.9 21.7 9.3 24.8 27.1 45.3 47.2 62.2 1.5 1.2 3.6-.9 2.1-2.1-20.7-17.4-39.1-38.7-47.8-64.8-1.1-3.4-2.1-6.8-3.3-10.1-1-2.9-2.9-5.9-3.8-8.8-1-1.6-.9-3.4.4-5.2l1.2-.9c.3-.5.9-.8 1.2-1.4.4-1.1.1-2.1-.7-2.9-1.3-1.3-3.3-.6-5-1.1-6.5-1.9-1.2-6.3-.7-9.5.7-4.2-4.5-3.7-7.3-3.9.5.4 1 .7 1.4 1.1-2.5-15.2-7.1-29.9-13.7-43.8-.4-1.8-3-.3-2.2 1.5z"/><path d="m333.5 787.3c32.5 8.7 61 30.8 81.7 57 22 27.8 35.7 61.2 43.1 95.7.4 1.9 3.3 1.1 2.9-.8-7.5-35-21.5-68.8-43.8-97-21-26.5-50-48.9-83-57.7-2-.6-2.8 2.3-.9 2.8z"/><path d="m345.3 799.7c39.8 38.7 70.5 86.2 89.4 138.5.7 1.8 3.6 1 2.9-.8-19.1-52.7-50-100.7-90.2-139.8-1.3-1.4-3.5.7-2.1 2.1z"/><path d="m363 862.6c8.4.9 16.6 2.8 24.4 5.9 7.6 3 15.9 6.8 20.7 13.7 1.1 1.6 3.7.1 2.6-1.5-4.8-6.9-12.3-10.8-19.9-14-8.9-3.8-18.2-6.1-27.9-7.1-1.8-.2-1.8 2.8.1 3zm14.9-54.8c-.1 11.5 1.8 22.8 5.5 33.7.6 1.8 3.5 1 2.9-.8-3.6-10.6-5.4-21.6-5.4-32.9 0-1.9-3-1.9-3 0zm54.9 54.4c4.9-18.3 21.2-29.2 35.1-40.4 14.8-11.9 29.1-24.6 42.7-37.8-.8-.5-1.7-1-2.5-1.5-4.5 12.1-5.4 24.8-5.2 37.6s3.1 27.5-1 39.9c.5-.4 1-.7 1.4-1.1-3.2.2-6.4.5-9.6.7-1 .1-2 1.3-1.3 2.3 2.3 3.1 5 4.1 4.9 8.7 0 3.2-.8 6.9-1.9 9.9-1.1 3.1-4 5.2-5 8.1-.8 2.6 1.2 4.8 1.2 7.4.1 4.3-3 7.9-5.2 11.3-2.1 3.2-4 6.5-5.7 9.9-3.4 6.7-6.1 13.6-8.1 20.8-.5 1.9 2.4 2.7 2.9.8 2.5-8.9 6.1-17.5 10.8-25.5 3.2-5.4 9.2-11.7 8.5-18.5-.3-2.7-1.7-3.5-.5-6.6.1-.1 1.9-2.5 2-2.7 1.9-3.1 2.8-6.6 3.4-10.1.4-2.6 1.2-5.8.8-8.4-.6-3.7-3.4-4-5.5-6.8-.4.8-.9 1.5-1.3 2.3 3.2-.2 6.4-.5 9.6-.7.7-.1 1.2-.4 1.4-1.1 3.8-11.6 1.5-25.1 1.1-37.1-.4-13.7.1-27.5 5-40.5.6-1.5-1.5-2.4-2.5-1.5-14.5 14.1-29.7 27.6-45.6 40.2-13.6 10.8-28.3 21.8-33 39.4-.3 2.1 2.6 2.9 3.1 1z"/><path d="m499.5 797c-9.8 17.1-19.8 34-29.2 51.3-8.8 16-16.6 32.6-20.3 50.5-.4 1.9 2.5 2.7 2.9.8 3.8-18.3 11.9-35.1 20.9-51.4 9.2-16.7 18.9-33.1 28.3-49.7.9-1.6-1.7-3.2-2.6-1.5z"/><path d="m470 824.8c1.3 5.7 1.9 11.4 1.7 17.2-.1 1.9 2.9 1.9 3 0 .2-6.1-.4-12-1.8-18-.5-1.9-3.3-1.1-2.9.8zm16.3-19.1c1.1 4.3 1.3 8.5.8 12.8-.2 1.9 2.8 1.9 3 0 .6-4.6.3-9.1-.9-13.6-.5-1.8-3.4-1-2.9.8zm.7 19.9c5.9-3.5 12-6.6 18.3-9.2 1.8-.7 1-3.6-.8-2.9-6.6 2.7-12.9 5.9-19.1 9.5-1.6 1-.1 3.6 1.6 2.6zm-25.8 50.2c3.8-3.2 7.6-6.3 11.5-9.3 4.1-3.2 8.6-7.5 13.6-9.5 1.8-.7 1-3.6-.8-2.9-4.5 1.7-8.2 5-12 8-4.9 3.8-9.7 7.6-14.4 11.6-1.5 1.2.6 3.3 2.1 2.1zm-115.8-56.1c7 .7 14 1.4 21 2 1.9.2 1.9-2.8 0-3-7-.7-14-1.4-21-2-1.9-.2-1.9 2.8 0 3zm183.5 199.5h481.7c1.9 0 1.9-3 0-3h-481.7c-2 0-2 3 0 3zm423.8-245v43.8c0 1.9 3 1.9 3 0v-43.8c0-1.9-3-1.9-3 0zm-69 50.5h145.5c1.9 0 1.9-3 0-3h-145.5c-1.9 0-2 3 0 3z"/><path d="m916.3 825.5v37.9c0 1.9 3 1.9 3 0v-37.9c0-2-3-2-3 0zm75-.8v33.4c0 1.9 3 1.9 3 0v-33.4c0-1.9-3-1.9-3 0zm-47.5 41.6h111.3c1.9 0 1.9-3 0-3h-111.3c-1.9 0-1.9 3 0 3zm-83.9 181.9h245.7c1.9 0 1.9-3 0-3h-245.7c-1.9 0-1.9 3 0 3zm338.7-25.9h309.1c1.9 0 1.9-3 0-3h-309.1c-1.9 0-1.9 3 0 3zm-996.9 51.2h247.3c1.9 0 1.9-3 0-3h-247.3c-1.9 0-1.9 3 0 3zm166.2 30h201.9c1.9 0 1.9-3 0-3h-201.9c-2 0-2 3 0 3zm1023.1-855v-83.6c0-1.9-3-1.9-3 0v83.6c0 1.9 3 1.9 3 0z"/><path d="m1390.5 164.3h108.3c1.9 0 1.9-3 0-3h-108.3c-1.9 0-1.9 3 0 3z"/><path d="m1497.3 163c-.2 28.3-.4 56.6-.7 84.9 0 1.9 3 1.9 3 0 .2-28.3.4-56.6.7-84.9 0-1.9-3-1.9-3 0z"/><path d="m1391 250h106.8c1.9 0 1.9-3 0-3h-106.8c-1.9 0-1.9 3 0 3zm2.9-79.3v70.4c0 1.9 3 1.9 3 0v-70.4c0-1.9-3-1.9-3 0z"/><path d="m1396.1 172.2h94.7c1.9 0 1.9-3 0-3h-94.7c-2 0-2 3 0 3z"/><path d="m1489.2 171.4-.3 69.1c0 1.9 3 1.9 3 0l.3-69.1c0-1.9-3-1.9-3 0z"/><path d="m1396.7 243h93.3c1.9 0 1.9-3 0-3h-93.3c-1.9 0-1.9 3 0 3zm-.6-20.7c11.5-4 23.6-.4 34.8 2.9 11.4 3.3 22.6 7.3 33.5 11.9 1.8.7 2.6-2.2.8-2.9-12.1-5.1-24.5-9.4-37.1-12.9-10.7-2.9-22-5.7-32.8-1.9-1.8.6-1 3.5.8 2.9z"/><path d="m1434.1 225.7c18.9-1.1 36.6-8.7 55.3-10.8 1.9-.2 1.9-3.2 0-3-18.7 2.1-36.4 9.6-55.3 10.8-2 .2-2 3.2 0 3zm35.8-36.6c-4.2-2.4-.4-10.3 4.1-8.4 2.4 1 2.9 3.9 1.6 6-1.4 2.3-4.3 2.7-6.7 2-1.9-.5-2.7 2.4-.8 2.9 4 1.1 8.5-.1 10.5-4 1.8-3.5.4-8.1-3.4-9.7-7.8-3.3-14.2 9.7-6.8 13.8 1.6.9 3.2-1.7 1.5-2.6zm-30.6-26.8c.1-1.7.2-3.4.7-5 .4-1.3 1.4-4.4 2.9-5 2.7-1 3.7 8.5 3.9 10.3.2 1.9 3.2 1.9 3 0-.3-3.5-1.1-14.5-6.7-13.7-2.4.3-4.1 3-5 5-1.2 2.6-1.6 5.5-1.7 8.3-.1 2 2.9 2 2.9.1zm16.8 466.5v36.1c0 1.9 3 1.9 3 0v-36.1c0-1.9-3-1.9-3 0z"/><path d="m1419.8 669.3h81.7c1.9 0 1.9-3 0-3h-81.7c-1.9 0-1.9 3 0 3z"/><path d="m1431.3 670.2v17c0 1.9 3 1.9 3 0v-17c0-1.9-3-1.9-3 0zm43.7.9v20.2c0 1.9 3 1.9 3 0v-20.2c0-2-3-2-3 0z"/><path d="m1453.8 695.2h56.7c1.9 0 1.9-3 0-3h-56.7c-1.9 0-1.9 3 0 3z"/></g><path d="m761.9 987.6c31.5-21.3 47.3-32 51.4-33.3 10-3.2 42.4-13.5 70.7 3.8 20.3 12.4 39 39.3 31.2 57.3-5.6 12.8-22.7 16.8-38.2 20.5-22.9 5.4-42.5 2.4-53.5-.2-4.3 4.2-11.2 9.8-20.9 13.5-16.1 6.2-34.7 5.1-35.6 1.4-.4-1.9 3.6-5.6 23-13.2-2.3-2.5-5.7-5.5-10.5-7.6-14.2-6.5-28.4-.2-31.1 1.1 13.9 8.1 16.9 12.3 16.2 14.6-1.8 5.8-30.1 7.7-37.7-5.6-.8-1.3-3-5.8-1.2-14.3 3.6-15.6 16.6-24.7 36.2-38z" fill="#161616"/><path d="m899.1 1009.8c3.2-6.6 17.6-5 23.2-4.4 7.2.8 13.6 1.5 19.4 6.6 4.4 3.8 10.8 12.1 8.5 18.8-2.1 6.4-10 5.9-25.3 13.4-2.6 1.3-27.6 13.6-25.9 21.7.7 3.3 5.2 3.2 19.5 9.3 12.4 5.2 19.7 8.4 25.8 15.4 3 3.5 9 10.4 7.4 17.4-3 12.9-29.8 15.1-30.5 13.1-.6-1.7 18.2-6.4 18.4-15.2.2-6.7-10.3-12.1-16.9-15.6-19.4-10.1-32.5-6.5-37.6-16.2-2.9-5.5-1.3-11.4-1-12.5 1.5-5.4 5.7-10 26.2-20.3 18.7-9.4 27-11.6 26.9-15.8-.1-3.9-7.3-7.1-11.7-8.2-12.4-3.3-21.5 4.5-25.7.1-1.8-2-1.7-5.4-.7-7.6zm-170.8-48.4 18.9 14.1c9-.9 17.9-1.7 26.9-2.6 5.6-5.4 11.2-10.9 16.8-16.3.4 3.4 1.2 11.1 1.5 14.8 3.5 33.3 3.8 36.2 1.7 40-6.9 12.3-30.2 17.3-43.6 8.7-6.5-4.2-9-10.5-13.7-22.6-5.7-14.6-7.7-27.4-8.5-36.1z" fill="#161616"/><path d="m753.7 996c-1.5 3.1-4.8 5-8.2 4.4-.9-.2-1.3 1.3-.4 1.4 4.1.7 8.2-1.3 9.9-5.1.4-.8-.8-1.6-1.3-.7zm13.9-1c3.3 3.2 7.7 4.6 12.2 3.9 1-.1.5-1.6-.4-1.4-4 .6-7.9-.7-10.8-3.5-.7-.7-1.7.3-1 1zm-5.3 9.5c-.3 0-.5-.1-.8-.1.1-.1.1-.3.2-.4.2.2.5.4.7.6 0-.2-.1-.3-.1-.5-.3-.9-1.7-.5-1.4.4.5 2.2 1.3 5.6-1.4 6.7-.9.4-.5 1.8.4 1.4 3.6-1.5 3.2-5.4 2.5-8.6-.5.1-1 .3-1.4.4 0 .2.1.3.1.5.1.3.4.6.7.6 2.6-.2.5-3.8-.7-1.7-.5.7.7 1.5 1.2.7z" fill="#fff"/><path d="m761.3 1005.2c.5 1.7.6 3.6 1.7 5.1.9 1.2 2.3 1.8 3.8 1.5.9-.2.5-1.6-.4-1.4-2.8.6-3.2-3.8-3.7-5.6-.2-.9-1.6-.5-1.4.4zm-4.8 1.4c-2.9-1.3-5.9-1.9-9.1-1.7-1 .1-1 1.6 0 1.5 2.9-.2 5.7.3 8.3 1.5.9.4 1.7-.9.8-1.3zm-2.6 2c-2.5.2-4.7 1.2-6.4 2.9-.7.7.4 1.7 1.1 1.1 1.5-1.4 3.3-2.3 5.4-2.5.8-.1.8-1.6-.1-1.5zm14.3-2.7c2.9-1.1 5.8-1.5 8.9-1.2 1 .1 1-1.4 0-1.5-3.2-.3-6.3.2-9.3 1.3-.9.3-.6 1.8.4 1.4zm2 2.7c2.2-.3 4.3-.1 6.4.7.9.3 1.3-1.1.4-1.4-2.2-.8-4.5-1-6.8-.7-1 0-1 1.6 0 1.4zm-23.6-17c1.5-.9 3.3-.9 4.8 0 .8.5 1.6-.8.8-1.3-2-1.1-4.3-1.1-6.3 0-.9.5-.1 1.8.7 1.3zm21-2c1.5-.8 3.2-1 5-.8.9.1 1.4-1.3.4-1.4-2.1-.3-4.2 0-6.1 1-1 .3-.2 1.6.7 1.2z" fill="#fff"/><path d="m743.7 958.2c3.1-1.3 6.2-2.6 9.2-4-.6-.4-1.1-.8-1.7-1.3-1.2 3.8-3 7.2-5.4 10.4-.6.8.4 2 1.3 1.7 3.4-1.3 6.8-2.5 10.2-3.8 1.3-.5.8-2.7-.6-2.2-3.4 1.3-6.8 2.5-10.2 3.8.4.6.8 1.1 1.3 1.7 2.6-3.3 4.4-6.9 5.7-10.9.3-1-.8-1.6-1.7-1.3-3.1 1.3-6.2 2.6-9.2 4-1.4.6-.2 2.5 1.1 1.9zm5-18.2c2.1-1.2 4.2-2 6.5-2.5-.4-.6-.8-1.1-1.3-1.7-.9 2-2 4-3.3 5.8-.5.8.2 1.6 1 1.7 2.7.2 5.2-.5 7.3-2.1 1.1-.9 0-2.8-1.1-1.9-1.8 1.4-3.8 2-6.1 1.8.3.6.6 1.1 1 1.7 1.3-1.9 2.4-3.8 3.3-5.8.4-.9-.3-1.9-1.3-1.7-2.5.5-4.9 1.4-7.1 2.7-1.3.8-.2 2.7 1.1 2zm16.5 24.2c-3.3-3.3 2.4-5.2 3-8.1.6-3.4-3.4-6.6 1.1-9.2 1.3-.7.1-2.7-1.1-1.9-1.6.9-2.9 2.3-3.3 4.2-.6 3.2 2.2 5.1-.2 8-1.1 1.4-2.4 1.8-2.8 3.7s.4 3.5 1.7 4.9c1.1 1 2.7-.6 1.6-1.6z" fill="#161616"/><path d="m1041.3 678.7c-250.7 18.1-501.4 36.1-752 54.2-6.8-181.8-13.6-363.6-20.3-545.4l755.4-10.2c5.6 167.1 11.2 334.2 16.9 501.4z" fill="#fff" stroke="#161616" stroke-miterlimit="10" stroke-width="3.5"/><path d="m482 276h145.9c1.9 0 1.9-3 0-3h-145.9c-1.9 0-1.9 3 0 3zm54.6 12.3h150.3c1.9 0 1.9-3 0-3h-150.3c-2 0-2 3 0 3zm-237.2 293.4c1.8 41.8 3.6 83.7 5.4 125.5.1 1.9 3.1 1.9 3 0-1.8-41.8-3.6-83.7-5.4-125.5-.1-1.9-3.1-1.9-3 0zm220.3-24.4h13c1.9 0 1.9-3 0-3h-13c-1.9 0-1.9 3 0 3zm24.3 0h33.2c1.9 0 1.9-3 0-3h-33.2c-1.9 0-1.9 3 0 3zm58.3-1.6h39.7c1.9 0 1.9-3 0-3h-39.7c-1.9 0-1.9 3 0 3zm-64.7 22.6h48.6c1.9 0 1.9-3 0-3h-48.6c-2 0-2 3 0 3zm23.4-11.3h56.7c1.9 0 1.9-3 0-3h-56.7c-1.9 0-1.9 3 0 3zm100.4 106.9h95.5c1.9 0 1.9-3 0-3h-95.5c-1.9 0-1.9 3 0 3zm78.5 8.1h50.2c1.9 0 1.9-3 0-3h-50.2c-1.9 0-1.9 3 0 3zm43.7-12.2h49.4c1.9 0 1.9-3 0-3h-49.4c-1.9 0-1.9 3 0 3zm84.2-271.1h91.5c1.9 0 1.9-3 0-3h-91.5c-1.9 0-1.9 3 0 3zm-28.3 4.8h29.1c1.9 0 1.9-3 0-3h-29.1c-2 0-2 3 0 3zm5.6 8.1h97.9c1.9 0 1.9-3 0-3h-97.9c-1.9 0-1.9 3 0 3zm120.7-7.3h18.6c1.9 0 1.9-3 0-3h-18.6c-2 0-2 3 0 3zm-24.3 122.2h27.5c1.9 0 1.9-3 0-3h-27.5c-2 0-2 3 0 3zm-17.8 8.1h29.9c1.9 0 1.9-3 0-3h-29.9c-2 0-2 3 0 3zm14.5 8.1h59.1c1.9 0 1.9-3 0-3h-59.1c-1.9 0-1.9 3 0 3zm37.3-9.7h17.8c1.9 0 1.9-3 0-3h-17.8c-2 0-2 3 0 3zm-411.9-124.7h41.9c1.9 0 1.9-3 0-3h-41.9c-1.9 0-1.9 3 0 3zm30.5 8.6h61.9c1.9 0 1.9-3 0-3h-61.9c-1.9 0-2 3 0 3zm54.3-11.5h35.2c1.9 0 1.9-3 0-3h-35.2c-1.9 0-1.9 3 0 3zm-357.9-159.6 6.6 227.8c.6 21.6 1.2 43.1 1.9 64.7.1 1.9 3.1 1.9 3 0l-6.6-227.8c-.6-21.6-1.2-43.1-1.9-64.7 0-1.9-3-1.9-3 0zm726.9 248.1 4.5 150.5c.1 1.9 3.1 1.9 3 0l-4.5-150.5c0-1.9-3-1.9-3 0z" fill="#161616"/><path d="m810.3 470.9c.6 6.1 1.2 12.3 1.7 18.4 5.8-1.5 11.5-3.1 17.3-4.6-.8-6.1-1.5-12.3-2.3-18.4-5.6 1.5-11.1 3.1-16.7 4.6zm-3.5 46.7c6-.8 11.9-1.5 17.9-2.3.8 7.3 1.5 14.6 2.3 21.9-5.4.2-10.8.4-16.1.6-1.4-6.8-2.7-13.5-4.1-20.2zm21.9 44.3c1.9 6.3 3.8 12.7 5.8 19 5.4-2.5 10.8-5 16.1-7.5-1.7-5.6-3.5-11.1-5.2-16.7-5.5 1.8-11.1 3.5-16.7 5.2z" fill="#ec615b"/><path d="m433.4 621.5c1.3 19.4 2.6 38.8 3.9 58.1 34-2.2 68-4.3 102-6.5.6-17.4 1.3-34.9 1.9-52.3-35.9.3-71.9.5-107.8.7z" fill="#5222d0"/><ellipse cx="856.1" cy="220.9" fill="#5222d0" rx="7.1" ry="5.9"/><ellipse cx="373.6" cy="267.1" fill="#ec615b" rx="5.9" ry="3.9"/><ellipse cx="467.5" cy="378.7" fill="#ec615b" rx="4.6" ry="5.4"/><path d="m425.3 249.4c1.8-.3 5.3 16.4 13.9 46.7 11.3 39.9 22.5 72.1 30.6 94.1-12.3 7.6-39.8 22.1-77.3 22.6-26.5.3-47.4-6.5-59.8-11.7 24.3 2.7 43.9 2 57.6.7 21.7-2 17.9-4.3 34.3-5.1 6.8-.3 15.7-.3 24.8-5.8 3.3-2 5.7-4.2 7.3-5.8-6.4-13.2-14.6-32.6-21.2-56.9-10.5-39.5-12.8-78.3-10.2-78.8z" fill="#6d6c6c" opacity=".21"/><path d="m519 357.9c1.6 12.7 4.5 26.9 9.3 42.1 13.7 43.2 36.8 74 54.2 93-10.4 7.7-23.3 15.7-38.8 22.4-47 20.3-90.9 17.3-114.4 13.7l-2.7-15.9c10 .3 20.6.1 31.7-.5 39.6-2.5 73.6-11.4 100.7-21.3-8.6-14.6-14.8-27.2-19.1-36.7-10.4-22.7-18.1-39.8-20.8-62.9-1.7-14.1-1-26-.1-33.9z" fill="#6d6c6c" opacity=".25"/><path d="m836.9 424.1c1 22.8 3.4 41.7 5.5 55.3 4.9 31.2 8.5 52.8 21.3 77.1 8 15.1 17 26.2 23.5 33.4-11.3 9.7-26.5 20.7-46 29.5-49 22.3-95 17.8-116.5 14.2-1.1-4.9-2.2-9.8-3.3-14.8 2.7.2 6.9.4 12 .5 17 .4 52.4 1 93-12.6 11.4-3.8 27.4-10.2 45.4-20.8-7.1-9.5-14.1-20.8-20.2-33.9-24.1-51.7-19.3-101.9-14.7-127.9z" fill="#6d6c6c" opacity=".14"/><path d="m913.5 199.8c2 9.3 4.9 23.5 7.8 41.2 5.4 34.2 5 46.6 11.3 66.8 3.3 10.5 9.2 25.4 20.3 42.4-9.3 7.6-20.9 15.5-35.2 22.1-46.8 21.7-91.6 15.6-112.2 11.3.2-4 .4-8 .6-11.9 2.6.7 6.5 1.6 11.3 2.4 6.3 1 29.6 4.4 73.4-6.6 12.1-3 28.4-7.8 47.1-15.5-3.6-6.4-8.9-16.4-13.7-29.2-14-37.1-13.9-69.3-13.7-85.9.1-9.1.7-21.8 3-37.1z" fill="#6d6c6c" opacity=".18"/><g fill="#161616"><path d="m315.7 243.7c-9.9 52.4.1 105.4 10.1 157 .4 1.9 3.3 1.1 2.9-.8-9.9-51-19.8-103.5-10.1-155.4.3-1.8-2.6-2.7-2.9-.8z"/><path d="m318.5 243.3c14.3 9.6 31.6 11.3 48.5 10.1 19.3-1.4 38.4-5.5 57.5-8.7 1.9-.3 1.1-3.2-.8-2.9-18.3 3-36.6 6.9-55.1 8.4-16.9 1.4-34.2.1-48.6-9.6-1.6-1-3.1 1.6-1.5 2.7zm104 3.5c2.8 47.8 10 96.6 34.2 138.6 1 1.7 3.6.2 2.6-1.5-23.9-41.6-31-89.9-33.8-137.1-.1-1.9-3.1-1.9-3 0z"/><path d="m328.3 401.5c22.7 6.6 47.1 2.6 70.2.7 20.5-1.7 42.5-2.5 60.1-14.5 1.6-1.1.1-3.7-1.5-2.6-17.7 12.1-39.9 12.5-60.5 14.2-22.2 1.8-45.6 5.5-67.5-.8-1.9-.4-2.7 2.5-.8 3zm38.4-133.8c-2-.9.2-2.8 1.4-3.1 1.5-.4 4.4-.6 5.1 1.1.5 1.3-.3 3-1.5 3.5-1.9.9-4-.2-5.3-1.5-1.4-1.4-3.5.7-2.1 2.1 2.5 2.5 6.6 3.8 9.7 1.5 2.5-1.8 3.4-5.8 1.3-8.2-2.4-2.7-7.5-2.4-10.2-.4-2.4 1.8-2.9 6.1.2 7.5 1.7.9 3.2-1.7 1.4-2.5z"/><path d="m406.8 401.9c-7.2 36.5.5 73.4 8.3 109.2.4 1.9 3.3 1.1 2.9-.8-7.7-35.2-15.3-71.6-8.3-107.6.4-1.9-2.5-2.7-2.9-.8zm41.3-38.3c23.1-4.4 46.5-6 69.9-5.1l-1.5-1.5c-4.7 48.2 15.9 94.1 40.9 134 1 1.6 3.6.1 2.6-1.5-24.7-39.5-45.2-84.8-40.5-132.5.1-.8-.8-1.5-1.5-1.5-23.7-.9-47.4.8-70.7 5.2-1.9.4-1.1 3.3.8 2.9z"/><path d="m416.7 513.2c48.6 5.7 97.9-1.6 142.9-20.8 1.8-.8.2-3.3-1.5-2.6-44.4 19-93.4 26-141.4 20.4-1.9-.2-1.9 2.8 0 3zm50.2-137.3c0-.1.3-.6.3-.8.1-.4.4-.8.7-1.1.6-.5 1.3-.9 2.1-1 1.5-.2 2.9.6 3.3 2.1.3 1.2-.2 2.8-1.6 3-1.3.2-2.5-.7-2.7-2-.3-1.9-3.2-1.1-2.9.8.5 3.5 5 5.2 7.9 3.5 3.2-1.9 3-6.8.3-9.1-3-2.5-8-1.2-9.7 2.2-.8 1.7-.8 4 1.1 5 1.5.8 3.7.1 4.1-1.8.3-1.9-2.6-2.7-2.9-.8zm-141.3-77.8c26.6 3.7 53-1.8 78.5-9.1 1.9-.5 1.1-3.4-.8-2.9-25 7.1-50.9 12.7-76.9 9.1-1.9-.3-2.7 2.6-.8 2.9zm5 19.6c13.8 1.5 27.6.1 40.9-4.1 1.8-.6 1.1-3.5-.8-2.9-13 4.1-26.5 5.4-40.1 4-1.9-.2-1.9 2.8 0 3zm0 24.2c26.4 3.1 53 1.2 78.6-5.5 1.9-.5 1.1-3.4-.8-2.9-25.4 6.7-51.7 8.5-77.8 5.4-1.9-.3-1.9 2.7 0 3zm98.8 153.5c26.5 1.2 53-2 78.4-9.6 1.8-.5 1.1-3.4-.8-2.9-25.2 7.5-51.3 10.7-77.6 9.5-2-.1-2 2.9 0 3zm5.1-22.9c11.8-.4 23.6-1.3 35.4-2.6 1.9-.2 1.9-3.2 0-3-11.8 1.3-23.5 2.2-35.4 2.6-1.9.1-1.9 3.1 0 3zm9.6-41.2c7.8 1 15.9-1 23.6-2.1 8.5-1.3 16.9-2.5 25.4-3.8 1.9-.3 1.1-3.2-.8-2.9-7.8 1.2-15.7 2.4-23.5 3.5-8.1 1.2-16.5 3.4-24.7 2.3-1.9-.3-1.9 2.7 0 3zm353.4-224.2c-10.9 53.5-12 108.5-3.3 162.4.3 1.9 3.2 1.1 2.9-.8-8.6-53.3-7.4-107.9 3.3-160.8.4-1.9-2.5-2.7-2.9-.8z"/><path d="m800.9 207.8c36.3-8.3 73.8-10 110.8-5 1.9.3 2.7-2.6.8-2.9-37.5-5.1-75.5-3.4-112.4 5-1.8.5-1 3.4.8 2.9z"/><path d="m910.8 200.1c-1.1 51.5-.4 105.9 25.7 152 1 1.7 3.5.2 2.6-1.5-25.8-45.6-26.4-99.5-25.3-150.5.1-1.9-2.9-1.9-3 0z"/><path d="m796.5 371.1c11.2 3.4 23.2 3.6 34.8 3.7 12.5.1 25-.7 37.5-2.4 23.9-3.2 47.2-9.7 69.5-19.1 1.8-.7.2-3.3-1.5-2.6-22.3 9.4-45.8 15.8-69.8 18.9-11.2 1.4-22.5 2.2-33.8 2.1-11.9 0-24.4-.1-35.8-3.6-2-.4-2.7 2.5-.9 3zm61.2-160.1c-3.4 1.2-4.9 5.1-3.7 8.4 1.4 3.7 5.7 4.6 8.9 2.4 3.1-2.2 4.1-6.6 1.1-9.4-2.6-2.4-7.1-2.5-9.5.1-1.3 1.4.8 3.5 2.1 2.1 3-3.2 8.9 1.3 4.8 4.5-1.6 1.2-3.9 1.2-4.6-.9-.5-1.6 0-3.8 1.7-4.4 1.8-.6 1-3.5-.8-2.8zm-58.7 42.6c27.3.7 54.5.2 81.7-1.6 1.9-.1 1.9-3.1 0-3-27.2 1.8-54.5 2.4-81.7 1.6-2 0-2 3 0 3zm2.7 15.2c10.2.4 20.4.8 30.5 1.2 1.9.1 1.9-2.9 0-3-10.2-.4-20.4-.8-30.5-1.2-2-.1-2 2.9 0 3zm-2.8 21.2c25.7 1.4 51.7 2.6 77-3 1.9-.4 1.1-3.3-.8-2.9-25.1 5.5-50.8 4.3-76.2 2.9-1.9-.1-1.9 2.9 0 3zm-372.8 325.1c-2.3 20-3.1 40.1-2.4 60.2.1 1.9 3.1 1.9 3 0-.7-20.1.1-40.2 2.4-60.2.2-1.9-2.8-1.9-3 0z"/><path d="m427.1 616.3c35.6 0 71.3-.5 106.9-1.6 1.9-.1 1.9-3.1 0-3-35.6 1.1-71.3 1.6-106.9 1.6-1.9 0-1.9 3 0 3z"/><path d="m533.7 613.3.9 52.1c0 1.9 3 1.9 3 0l-.9-52.1c0-1.9-3.1-1.9-3 0z"/><path d="m423.4 673.1c.2 6.5 11.5 3.6 15.2 3.4 10.6-.7 21.2-1.4 31.7-2.2 21.5-1.5 43-2.9 64.5-4.4 1.9-.1 1.9-3.1 0-3-18.3 1.2-36.5 2.5-54.8 3.7l-26.1 1.8c-2.6.2-27.5 2.6-27.6.7.1-1.9-2.9-1.9-2.9 0zm11.8-43.3c24-1.1 48-.2 71.8 2.8 1.9.2 1.9-2.8 0-3-23.8-3-47.8-3.9-71.8-2.8-2 .1-2 3.1 0 3zm.9 15.2c13.4-1 26.9-2.1 40.3-3.1 1.9-.1 1.9-3.1 0-3-13.4 1-26.9 2.1-40.3 3.1-1.9.1-1.9 3.1 0 3zm4.5 15.3c19.3-2.5 40.3-7.6 59.7-4.1 1.9.3 2.7-2.5.8-2.9-19.8-3.6-40.8 1.4-60.5 4-1.8.3-1.9 3.3 0 3zm260.1-215.4c-15.9 56.6-13.9 117.2 5.6 172.7.6 1.8 3.5 1 2.9-.8-19.3-55-21.3-115-5.6-171.1.5-1.9-2.4-2.7-2.9-.8z"/><path d="m702.7 445.9c44.5-.2 88.8-6 131.9-17.3 1.9-.5 1.1-3.4-.8-2.9-42.8 11.2-86.8 17-131.1 17.2-2 0-2 3 0 3z"/><path d="m833.8 426.8c-1.8 27.8-.6 55.8 4.4 83.3 2.5 13.9 5.5 27.8 11 40.8 5.5 12.9 13.1 24.6 22 35.3 1.2 1.5 3.4-.6 2.1-2.1-9.1-10.9-16.8-23-22.2-36.2-5.1-12.6-7.9-26.1-10.2-39.4-4.8-26.9-5.9-54.4-4.2-81.7.2-1.9-2.8-1.9-2.9 0z"/><path d="m706.7 619.2c56.6 4 115.7-2.4 165.3-31.6 1.7-1 .2-3.6-1.5-2.6-49.3 29-107.8 35.1-163.8 31.2-1.9-.2-1.9 2.8 0 3zm60.2-164.3c-1.7-2.9 1.7-6.5 4.6-4.2 3.1 2.5-.2 6.5-3.5 5.2-1.8-.7-2.6 2.2-.8 2.9 2.7 1.1 6-.1 7.6-2.5 1.8-2.7 1-6.1-1.5-8-5.4-4.3-12.2 2.4-9 8.1 1 1.7 3.6.2 2.6-1.5zm-63.2 34.5c29.9-.5 59.8-2.6 89.6-6.2 1.9-.2 1.9-3.2 0-3-29.7 3.7-59.6 5.7-89.6 6.2-1.9.1-1.9 3.1 0 3zm100.3-20.1c.9 4.6 1.8 9.3 2.7 13.9.4 1.9 3.3 1.1 2.9-.8-.9-4.6-1.8-9.3-2.7-13.9-.3-1.9-3.2-1.1-2.9.8z"/><path d="m806 468.9c5.5-.8 11-1.6 16.6-2.5 1.9-.3 1.1-3.2-.8-2.9-5.5.8-11 1.6-16.6 2.5-1.9.3-1.1 3.2.8 2.9z"/><path d="m821.7 465.5c.8 4.3 1.5 8.6 2.3 12.8.3 1.9 3.2 1.1 2.9-.8-.8-4.3-1.5-8.6-2.3-12.8-.3-1.8-3.2-1-2.9.8z"/><path d="m809.2 485.5c5.9-1.2 11.5-2.8 17.1-5 1.8-.7 1-3.6-.8-2.9-5.6 2.1-11.3 3.8-17.1 5-1.9.4-1.1 3.3.8 2.9zm.5-13.2c1.1 2.5 2.6 4.5 4.8 6.2.8.6 2.3.6 2.5-.7.8-5.4 2.7-10.2 5.9-14.7 1.1-1.6-1.5-3.1-2.6-1.5-3.3 4.6-5.4 9.8-6.2 15.4.8-.2 1.7-.4 2.5-.7-1.9-1.5-3.3-3.3-4.3-5.6-.8-1.7-3.4-.2-2.6 1.6zm1.1 42.9c-1.6 7.2-.9 14.2 2 20.9.8 1.8 3.3.2 2.6-1.5-2.6-5.9-3.1-12.3-1.7-18.6.4-1.9-2.5-2.7-2.9-.8z"/><path d="m812.8 516.2c6-1 12-1.9 18-2.9l-1.8-1.8c-1 6.4-.3 12.5 2.2 18.5.7 1.8 3.6 1 2.9-.8-2.3-5.4-3.1-11.1-2.2-16.9.2-1.2-.6-2-1.8-1.8-6 .9-12 1.9-18 2.9-2 .2-1.2 3.1.7 2.8z"/><path d="m814.1 536.2c6.6-.2 12.9-1.5 19.1-3.7 1.8-.7 1-3.6-.8-2.9-5.9 2.2-12 3.4-18.3 3.6-1.9 0-1.9 3 0 3zm.9-13.9c.9 2.6 2.4 4.4 4.8 5.8 1.1.6 2.1-.2 2.3-1.3.6-5.3 2-10.4 4.2-15.3.8-1.7-1.8-3.3-2.6-1.5-2.4 5.4-3.9 11-4.6 16.8.8-.4 1.5-.9 2.3-1.3-1.7-1-2.7-2.2-3.4-4.1-.7-1.7-3.6-.9-3 .9zm2 39.3c.7 6.7 2.5 13 5.5 19 .8 1.7 3.4.2 2.6-1.5-2.7-5.5-4.4-11.4-5-17.5-.3-1.9-3.3-1.9-3.1 0z"/><path d="m818.4 561.3c7.7.7 14.9-.7 21.8-4.1-.7-.3-1.5-.6-2.2-.9 1.3 6.1 4 11.4 8.2 16.1 1.3 1.4 3.4-.7 2.1-2.1-3.8-4.3-6.2-9.1-7.4-14.7-.2-1-1.4-1.3-2.2-.9-6.4 3.1-13.2 4.3-20.3 3.7-1.9-.2-1.9 2.8 0 2.9z"/><path d="m825.2 581.7c7.8-2.9 15.5-6 23-9.4 1.8-.8.2-3.4-1.5-2.6-7.3 3.3-14.8 6.3-22.3 9.1-1.8.7-1 3.6.8 2.9zm-1.6-15.1c2.4 2.1 7.9 9.3 10.7 4 1.3-2.4 1-5.7 1.8-8.4 1.2-3.8 3.2-7.3 5.8-10.3 1.2-1.5-.9-3.6-2.1-2.1-2.8 3.3-5 6.9-6.3 11.1-.6 1.9-1.1 3.9-1.4 5.9-.4 2.5-1.1 1.9-3 .7-1.2-.8-2.3-2-3.4-3-1.4-1.3-3.5.8-2.1 2.1zm-117.2-28.3c28-.3 55.9-2.6 83.5-7 1.9-.3 1.1-3.2-.8-2.9-27.4 4.3-55 6.6-82.7 6.8-1.9.1-1.9 3.1 0 3.1zm-3.2-40.6c18.1.5 36.1-.1 54.1-1.6 1.9-.2 1.9-3.2 0-3-18 1.5-36.1 2-54.1 1.6-1.9-.1-1.9 2.9 0 3zm4.3 46.5c19 .9 38 .2 56.8-2.2 1.9-.2 1.9-3.2 0-3-18.9 2.3-37.9 3.1-56.8 2.2-1.9-.1-1.9 2.9 0 3zm63.2-3.6c5.4.1 10.7-.6 15.9-2.3 1.8-.6 1-3.5-.8-2.9-4.9 1.6-9.9 2.3-15.1 2.2-1.9 0-1.9 3 0 3zm-53 41.2c22.8-1.4 45.5-3.5 68.1-6.6 1.9-.3 1.9-3.3 0-3-22.6 3-45.3 5.2-68.1 6.6-2 .1-2 3.1 0 3zm2.6 7h22.5c1.9 0 1.9-3 0-3h-22.5c-1.9 0-1.9 3 0 3zm6.5 6.7c11.7-.7 23.4-1.8 35.1-3.2 9.4-1.2 19.5-1.7 27.6-7.2 1.6-1.1.1-3.7-1.5-2.6-8.5 5.8-19.9 6.1-29.8 7.2-10.4 1.2-20.9 2.1-31.3 2.8-2 .1-2.1 3.1-.1 3zm114.2-80.8c18.2-.9 36.3-3.3 54.2-7.1-.6-.3-1.2-.7-1.8-1 8.4 25 20.8 48.3 36.7 69.4 1.1 1.5 3.8 0 2.6-1.5-15.7-20.8-28-43.9-36.4-68.6-.3-.8-1-1.2-1.8-1-17.6 3.8-35.4 6.1-53.4 7-2.1-.1-2.1 2.9-.1 2.8z"/><path d="m844.1 599.1c2.7 3.8 4.9 7.8 6.8 12.1.2.6 1.1.9 1.7.7 14.7-4.9 29.2-10.3 43.4-16.4 7.2-3.1 14.3-6.3 21.4-9.7 3.4-1.6 6.8-3.3 10.1-5 2-1 4.3-1.6 5-3.8.2-.6-.1-1.4-.7-1.7-.9-.5-1.4-.5-2.3 0-.6.3-.9 1.1-.7 1.7 0 .1.1.2.1.3.5 1.9 3.4 1.1 2.9-.8 0-.1-.1-.2-.1-.3-.2.6-.5 1.1-.7 1.7h-.7c-.2-.6-.5-1.1-.7-1.7-.6 1.8-6.9 3.7-8.6 4.6-2.8 1.4-5.6 2.7-8.5 4.1-6.7 3.2-13.5 6.2-20.4 9.1-13.2 5.6-26.7 10.6-40.3 15.1.6.2 1.1.5 1.7.7-1.8-4.3-4.1-8.3-6.8-12.1-1.1-1.7-3.7-.2-2.6 1.4zm17.4-76.6c-.2-1.3 2.2-2.5 3.1-1.6 1.2 1.2-.8 3.4-2.2 2.9-1.8-.7-2.6 2.2-.8 2.9 4.3 1.6 8.5-4.6 5.2-7.9-1.5-1.5-3.8-1.4-5.6-.5-1.9 1-2.9 2.9-2.5 5 .2 1.9 3.1 1 2.8-.8zm-443.1-80c11.1.2 22.3-.3 33.3-1.8 11.5-1.6 22.9-4.9 34.6-4.4 1.9.1 1.9-2.9 0-3-10.7-.4-21.1 2.3-31.6 3.9-12 1.9-24.2 2.6-36.4 2.3-1.8 0-1.8 3 .1 3zm1.6-33.1c17 1.3 34-.2 50.5-4.5 1.9-.5 1.1-3.4-.8-2.9-16.3 4.2-32.9 5.7-49.7 4.4-1.9-.1-1.9 2.9 0 3zm384.8-84.2c-1.7 11-3.1 22.9 3.8 32.5 1.1 1.6 3.7.1 2.6-1.5-6.4-8.9-5-20-3.5-30.2.3-1.9-2.6-2.7-2.9-.8z"/><path d="m805.7 325.1c23.8.9 47.6-1.4 70.8-6.9-.6-.3-1.2-.7-1.8-1 2.1 10.3 6.1 19.9 11.7 28.7 1 1.6 3.6.1 2.6-1.5-5.5-8.6-9.3-18-11.4-28-.2-.8-1.1-1.2-1.8-1-22.9 5.4-46.4 7.7-70 6.8-2-.2-2 2.8-.1 2.9z"/><path d="m811.1 357.6c25.8-.8 51.3-4.6 76.1-11.4 1.9-.5 1.1-3.4-.8-2.9-24.6 6.8-49.8 10.6-75.3 11.3-2 .1-2 3.1 0 3zm352.6 698.5v33.8c-80 31.7-96.3 43-95.1 47.1.3 1 2.4 4 44.4-.9 41.6-4.9 75.3-12 98.7-17.8-4.1-23.1-8.3-46.2-12.4-69.3-11.9 2.4-23.8 4.8-35.6 7.1z"/></g><path d="m1199.6 577.8c-2.3 4.3-3.1 7.8-3.3 8.6-14.3 60.8-33 96.7-45.2 167.2-23.3 135.8-3.2 290.1-1.3 304.6 6.4 2.8 18.7 7 34.4 6.4 13.8-.6 24.5-4.7 30.6-7.6-2.3-44.3 0-99 15.3-159.3 18.7-73.9 42.4-98.4 63.7-184.8 15.8-64 34.1-138.5 2.5-160.6-24.2-17.2-80.9-4.6-96.7 25.5z" fill="#ec615b"/><path d="m1254.9 609.7c-16 73-30.9 150.8-43.5 233.1-11.9 77.4-20.8 151.5-27.4 221.9 10.1-2.1 20.1-4.2 30.2-6.3-1.3-31.1.1-57.6 2.1-77.9 2.4-25.2 8.5-83.9 33-142.5 3.2-7.5 7.3-16.6 14-33.7 11.3-28.3 19.5-52.5 23.2-63.9 17.4-54.4 26.1-117.5 28.8-138.3-20.2 2.4-40.3 5-60.4 7.6z" fill="#6d6c6c" opacity=".2"/><path d="m1287.9 736.8c-39.2 51.1-57.5 97.4-66.7 128.5-8.4 28.3-12.1 53.3-16.9 85.7-6.8 46-9.4 84.8-10.5 112.4 6.6-1.6 13.1-3.3 19.7-4.9-1.1-38.7 1.6-71.8 4.9-97.6 4-30.6 8.6-66.1 24.6-108.8 5.8-15.5 8.6-19.9 21.8-53.4 10.2-26.2 18-47.7 23.1-61.9z" fill="#6d6c6c" opacity=".19"/><path d="m1379.7 1044.6c5.6 13.9 11.3 27.8 16.9 41.8-47 29.9-69.2 47.3-66.7 52.4 3.1 6.3 43.7-6.2 121.8-37.3-8.3-27-16.6-53.9-24.9-80.9z" fill="#161616"/><path d="m1341.1 579c24.5 22.4 23.7 53.8 26.8 105.8 0 0 7.6 127.9 33.1 230.7 6.4 25.7 18 65.6 39.5 113.4-3.6 4.6-13.4 15.8-30.6 21.7-17.6 6-32.6 2.8-38.2 1.3-30.6-52.2-52.3-96.7-66.3-127.5-64.9-142.2-70.1-217.1-70.1-256.2 0-40.2.7-88.4 30.6-104.5 22.5-12.1 55.5-2.7 75.2 15.3z" fill="#ec615b"/><path d="m1271.7 594.3c11.1 42.7 23.1 86.1 35.9 130.1 33.4 114.2 69.7 222.1 107.8 323.3 3.7-1.9 8.2-4.5 12.8-8 4.7-3.6 8.4-7.2 11.2-10.4-5.2-12.1-12.4-29.6-20-51.1-11.5-32.9-30.2-93.4-39.9-174-9.3-77.4-14-116.1-13.6-140.5.3-20.1 2.1-61-23.9-83-5.4-4.5-10.7-7.2-14.4-8.8-18.7 7.5-37.3 15-55.9 22.4z" fill="#6d6c6c" opacity=".15"/><path d="m1367.1 689.7c-4.6 46.5-6.1 108.8 5.1 180.8 11.3 72.4 31.8 131.5 50.3 174.5 5.7-4.7 11.4-9.4 17.1-14.2-6.8-16.1-15.7-38.5-24.6-65.9-17.1-52.7-24.5-93.8-30.9-130.7-6.5-37.8-13.3-86.7-17-144.5z" fill="#6d6c6c" opacity=".22"/><path d="m898.9 213.7c-4 2-9.5 5.5-13.8 11.5-2.3 3.1-5.1 7.2-5.5 13-.1 2.3-.4 7.3 2.8 10.6.9 1 3.3 2.9 15.1 2.5 10.5-.4 15.8-.6 18.5-3.4 5.2-5.4 3.3-15.6 0-21.7-5.2-9.7-15.4-12.1-17.1-12.5z" fill="#fff" stroke="#161616" stroke-miterlimit="10" stroke-width="2"/><path d="m959.3 238.8c14.1 16.1 36.7 25.7 78.2 42.8 52.3 21.6 78.5 32.4 109.5 36.2 33.5 4.1 51.4-.2 57.6 10.7 8.1 14.1-10.9 40.5-30.5 62.6-14.6-3.2-29.7-7.2-45.3-12.4-85.5-28.3-147.3-78.1-187.9-119.5-5.1 1.1-13.8 2.2-23.7-.8-8.5-2.5-20.5-8.9-19.8-14 .9-6.2 22.6-7.3 23.9-7.4-6.6-2.7-16.1-7.3-26.4-14.8-3-2.2-20.2-14.9-18.1-18.9 1.8-3.5 17.4 1.3 32.1 5.8 13.4 4.1 22.7 7 32.9 14 9.8 6.6 15.5 13.4 17.5 15.7z" fill="#fff" stroke="#161616" stroke-miterlimit="10" stroke-width="2"/><path d="m890.1 214.8c2.4 2.7 2.9 6.3 5 9.1 1.8 2.5 4.4 4.3 7.1 5.8 8.1 4.5 16.7 8.2 25 12.3 1.4.7 3.2-1.2 1.8-2.4-4.3-3.7-8.9-7-13.7-10-1.6-1-3.2 1.6-1.5 2.6 4.6 2.9 9 6 13.1 9.5l1.8-2.4c-7.9-3.8-15.8-7.5-23.6-11.6-3.7-1.9-7-4.1-8.9-7.9-1.3-2.6-2-5.1-4-7.3-1.3-1.2-3.4.9-2.1 2.3z" fill="#fff"/><path d="m897.9 225.3c4.6 2 9 4.6 13 7.7 1.5 1.2 3.6-.9 2.1-2.1-4.2-3.3-8.7-6-13.6-8.2-1.8-.8-3.3 1.8-1.5 2.6z" fill="#fff"/><path d="m886.1 213c3.8 6.1 8.8 11.1 14.7 15.1 1.6 1.1 3.1-1.5 1.5-2.6-5.5-3.7-10.1-8.4-13.6-14.1-1-1.5-3.6 0-2.6 1.6z" fill="#fff"/><path d="m890.6 221.2c2 2.7 4.2 5.2 6.7 7.4 1.8 1.6 9.7 7.3 5.6 10.2-.8.5 0 1.8.8 1.3 2.8-1.9 1.7-5.3 0-7.6-1.3-1.7-3.1-3-4.8-4.5-2.6-2.3-4.9-4.8-7-7.5-.6-.9-1.9-.1-1.3.7z" fill="#161616"/><path d="m888.5 231.6c3 4.1 8.7 9.9 14.3 8.2.9-.3.5-1.7-.4-1.4-4.8 1.5-10.1-4-12.6-7.5-.6-.8-1.9-.1-1.3.7zm-4.4 7c3.3 4.5 8.1 7.1 13.7 7.4 1 .1 1-1.4 0-1.5-5-.3-9.4-2.7-12.4-6.7-.6-.8-1.9 0-1.3.8zm-3.2 9c4.7 4.9 12.5 5 17.2 0 .7-.7-.4-1.8-1.1-1.1-4.1 4.4-10.9 4.3-15 0-.7-.7-1.8.4-1.1 1.1zm1-34.8c11.1 7.3 19.1 19.6 33 22 .9.2 1.4-1.3.4-1.4-13.7-2.3-21.7-14.6-32.6-21.8-.9-.7-1.6.6-.8 1.2z" fill="#161616"/><path d="m880.7 245.5c-3.6-4.9-.6-15.4 8.1-25.3 9.8 5.7 19.5 11.5 29.3 17.2-1.8 0-17.6.2-18.7 5.1-.2.8 0 2 1.5 3.7 5 2.4 13.4 5.6 24.2 5.9 5.6.1 10.5-.6 14.3-1.5 20.4 20.6 56.3 51.7 109.1 74.3 46.4 19.8 88 25.5 115.5 27.1-.9 11.8-1.8 23.5-2.7 35.3-45.3-12-106.7-34.8-167.7-80.6-20.8-15.6-38.6-31.7-53.8-47.2-14 2.3-22.7-.1-28.2-2.9-4.7-2.4-7.7-5.4-13.9-5.9-4.1-.3-7.6.7-12.1-1.5-.5-.2-3.4-1.7-4.9-3.7z" fill="#6d6c6c" opacity=".2"/><path d="m1009.5 316.1c14 7.5 30.2 15.1 48.7 21.6 40.3 14.3 76.8 18.8 104.7 19.8-.4 10.2-.7 20.5-1.1 30.7-29-6.8-65.4-18.7-104-40.3-18.5-10.3-34.5-21.2-48.3-31.8z" fill="#6d6c6c" opacity=".14"/><path d="m1167.6 344.6c-5.7 12.9-6 23.6-6.5 42.8-.4 14.5.6 30.1 8.4 71.1 9.5 49.6 14 57.6 15.5 83.9 1.2 20.6-.4 37.5-1.9 48.7 12.6 6.9 33.7 16.3 61.3 18.4 48.8 3.7 84.9-17.8 97.3-26 1.5-31.4 3-62.9 4.6-94.3-5.5-26.8-12-47.8-16.7-61.6-14.8-43.5-28.6-64.1-19.8-85.9 4.9-12.1 14.6-19.5 21.3-23.6-4.7-3.6-54-40.1-107.8-21.2-5.6 1.9-41 14.4-55.7 47.7z" fill="#fff" stroke="#161616" stroke-miterlimit="10" stroke-width="2"/><path d="m1223.1 296.8c15 24 23.4 45.2 28.2 60 0 0 23.5 71.4 6.3 167.2-3.7 20.4-10.3 49.4-23.3 82.6 5 1.1 11 2 17.8 2.3 0 0 10.5.5 22.3-1 14.4-1.9 39.1-9.6 68.2-24.4l1.5-100.4c-7.4-28.3-14.9-51-20.5-66.9-13.5-37.9-23-55.7-15.2-74.5 5.1-12.3 15.5-19.9 23.6-24.3-10.6-7-30.2-17.9-57-22.1-22.1-3.4-40.3-1-51.9 1.5z" fill="#6d6c6c" opacity=".19"/><path d="m1236.8 294.5c16.1 19.8 34.9 48.7 46.5 86.8 32.9 108.8-21.2 204.2-33.7 225.1 10.5-.1 22.8-1 36.2-3.6 23.9-4.6 43-12.8 56.7-20.1.5-31.2 1-62.4 1.5-93.5-8.5-28.9-16.5-56.3-27.4-93.5-7.4-25.5-13.2-46.4-2.3-63.1 5.3-8.1 12.7-12.6 18.3-15.2-31.9-7.7-63.9-15.3-95.8-22.9z" fill="#6d6c6c" opacity=".11"/><path d="m1229.4 498.8c-.3-21.4-.5-42.7-.8-64.1 51.3-2.6 102.6-5.2 154-7.8 1.8 19.8 3.6 39.6 5.5 59.4-52.9 4.2-105.8 8.3-158.7 12.5z" fill="#fff" stroke="#161616" stroke-miterlimit="10" stroke-width="2"/><path d="m1213.8 491.8v-23.4c65.9-4.9 131.8-9.9 197.7-14.8.5 9.6 1 19.3 1.6 28.9-66.4 3-132.9 6.2-199.3 9.3z" fill="#fff" stroke="#161616" stroke-miterlimit="10" stroke-width="2"/><path d="m1219.3 456.6c.8 11.5 1.6 22.9 2.3 34.4 61-4.9 121.9-9.9 182.9-14.8.5-10.4 1-20.8 1.6-31.3-62.3 3.9-124.6 7.8-186.8 11.7z" fill="#fff" stroke="#161616" stroke-miterlimit="10" stroke-width="2"/><path d="m1204.4 482.4c1.8 45.6 3.6 91.2 5.5 136.8 68-7.6 136-15.1 204-22.7l6.3-134.4c-72 6.8-143.9 13.5-215.8 20.3z" fill="#fff" stroke="#161616" stroke-miterlimit="10" stroke-width="2"/><path d="m1216 500.2c30.9-4.1 61.8-7 92.9-8.8 1.4-.1 1.4-2.3 0-2.3-31.1 1.8-62.1 4.7-92.9 8.8-1.4.2-1.4 2.5 0 2.3zm34.5 6.1c23.7-3 47.4-6.1 71.2-9.1 1.4-.2 1.4-2.4 0-2.3-23.7 3-47.4 6.1-71.2 9.1-1.4.3-1.4 2.5 0 2.3zm113.9 64c-.4 6.3-.4 12.7.2 19 .1 1.4 2.4 1.4 2.3 0-.6-6.3-.7-12.7-.2-19 .1-1.4-2.2-1.4-2.3 0z" fill="#161616"/><path d="m1365.4 570.5c12.4.3 24.7-.4 37-2l-1.1-1.1c-.2 5.8 0 11.5.4 17.2.1 1.4 2.4 1.4 2.3 0-.5-5.7-.6-11.5-.4-17.2 0-.6-.5-1.2-1.1-1.1-12.3 1.6-24.6 2.2-37 2-1.6-.1-1.6 2.1-.1 2.2z" fill="#161616"/><path d="m1366.3 591.1c12.3.2 24.4-1.1 36.4-3.8 1.4-.3.8-2.5-.6-2.2-11.8 2.6-23.7 3.9-35.8 3.7-1.4 0-1.4 2.2 0 2.3zm4.7-13.6c7.6.5 15.1.1 22.7-1.1 1.4-.2.8-2.4-.6-2.2-7.3 1.2-14.7 1.5-22.1 1-1.4-.1-1.4 2.2 0 2.3zm4.8 6.3c7.9-.2 15.5-1.7 23-4.4 1.3-.5.8-2.7-.6-2.2-7.2 2.7-14.7 4.1-22.4 4.4-1.4-.1-1.5 2.2 0 2.2z" fill="#161616"/><path d="m1236.7 614c1.8-42.2 3.6-84.4 5.3-126.7 58.4-4.7 116.9-9.3 175.3-14-1.3 40-2.7 80-4 120-58.9 6.9-117.7 13.8-176.6 20.7z" fill="#6d6c6c" opacity=".2"/><path d="m1395.3 446c.3 11.6-.3 25.4-3.3 40.7-7.4 37.6-25.2 64.7-37.3 80 8.2 10.9 16.4 21.8 24.7 32.7l-75.3 8.7c4-45.8 8-91.6 12-137.3-1.3-6-2.7-12-4-18 27.7-2.4 55.5-4.6 83.2-6.8z" fill="#6d6c6c" opacity=".2"/><path d="m1325.7 315.4c20.9-2.8 45.8 45.2 55.7 79.7 11.4 39.7 6.4 74 2.3 92.1-8 35.5-24.6 60.5-35 74 1.6 5.3 5.3 19.7-.8 35.5-9 23.1-33.4 34.2-35.3 32.1-.6-.7.6-3.6 10.1-14.5-2 2.1-16.4 16.4-32.6 13-2.8-.6-6.3-1.3-8.3-4.1-4.7-6.8 3.1-22.2 19.7-39.3-18.1 4.5-22.9 3.3-23.8 1.3-2.3-4.8 16.2-18.4 22.9-23.4 9.9-7.3 18.8-12.3 24.9-15.4 17.1-35.5 16.2-63.2 14.7-76.2-2.2-19.2-9.4-40.1-10.8-44.1-4-11.5-5.9-14.1-13.9-34.8-12.9-33.2-12.9-38.9-12.4-43.3 1.8-13.2 10.7-31 22.6-32.6z" fill="#fff" stroke="#161616" stroke-miterlimit="10" stroke-width="2"/><path d="m1282.2 620.4c11.1-6.3 20.8-14.4 28.9-24.2 1.2-1.5-.9-3.6-2.1-2.1-7.9 9.6-17.4 17.6-28.3 23.8-1.7.8-.2 3.4 1.5 2.5zm9.8 6.7c11-5.7 20.4-13.6 28-23.4 1.2-1.5-1.4-3-2.6-1.5-7.2 9.4-16.4 16.9-26.9 22.3-1.7.9-.2 3.5 1.5 2.6z" fill="#161616"/><path d="m1317.3 320.2c-19.9 17.3 61.3 93.2 47.4 179.4-9.5 59.1-48.9 97.7-48.9 97.7-11 11-31.7 24.5-29.2 29.2 1.8 3.4 14.3.3 18.8-1.1 8.5-2.6 14.4-7 17.7-9.9-5 5.6-10.7 12.5-9.5 13.9 1.7 1.8 15.9-5.6 24.8-16 15.4-18 13.2-43 11.7-53.2 3.6-4.7 8.3-11.3 13.1-19.7 4.4-7.5 17.1-30.9 22.6-62.7 9.7-56.3-10.2-100.7-18.2-118.1-7.2-15.5-19.4-41.2-37.9-42.3-2.4-.3-8.5-.6-12.4 2.8z" fill="#6d6c6c" opacity=".17"/><path d="m1384.7 476.2c-5.4 15.7-11.8 32.2-19.4 49.5-5.4 12.3-10.9 23.8-16.5 34.7-2.8 9-8.1 22.5-18.6 36.4-11 14.6-23.1 23.5-31.2 28.6 2.3.1 5.1-.1 8.2-.9 7.8-1.8 13-6.1 15.6-8.7-3 3.8-6.1 7.5-9.1 11.3 2.4-.4 6.2-1.1 10.4-3 22-9.9 26.6-36.8 26.9-38.6.8-4.9 1.3-13.3-1.7-23.7 7.2-8.5 16.3-21.2 23.6-38.3 8.1-18.8 10.8-35.7 11.8-47.3z" fill="#6d6c6c" opacity=".22"/><path d="m1144.6 249.6c-16.1 18.4-5 44.1-3.5 47.6 5.6 13 20.1 31.5 38.5 30 13.4-1.2 21.9-12.5 24-15.5 14.8-21.3 9.9-62-15.1-72.5-13.8-5.8-32.8-2.4-43.9 10.4z" fill="#5222d0"/><path d="m1185.2 266c.7 7.9 9 9.6 14.6 22.6 4 9.4 4 18.6 3.3 25.2 6.5.6 18.5.9 32.1-4.3 10.7-4.1 18.2-10 22.7-14.1-2.1-4.7-5.2-11.6-8.9-19.8-16-34.9-18.6-37.9-22.5-39.4-15.6-5.9-42.6 15.1-41.3 29.8z" fill="#fff" stroke="#161616" stroke-miterlimit="10" stroke-width="2"/><path d="m1127.6 162.7c-3.4 4.8-5.5 10.7-5.8 36-.2 21.6 1 41.3 3 58.8l13.5-7.8c2 4.9 5.4 11.6 11.2 18.1 11.5 12.9 25.5 17.3 31.7 18.9 6.5-1.6 22.7-6.6 35-21.9 8.1-10.2 10.7-20.3 11.3-22.6 3.7-15.1.1-27.6-1.8-32.8 2.4-1.1 6.1-3.2 8.9-7 5.9-8 7.5-22.3.2-27.1-5.4-3.6-15-1.5-22.2 5.9-1.6-3.7-4.1-8.8-8.1-14.1-1-1.3-8.5-11.1-17.7-16.2-17.7-10.2-47-5.4-59.2 11.8z" fill="#fff" stroke="#161616" stroke-miterlimit="10" stroke-width="2"/><path d="m1120.3 194.1c-4-.7-11.4-2.8-14.9-8.9-6-10.3 2.8-26 5-29.9 1.8-3.3 6.6-11.2 27-25.5 15.5-10.9 23.3-16.3 31.7-18.9 29.8-8.9 57.1 6.5 62.2 9.4 10.7 6.1 17.5 12.7 22.9 17.9 8.3 8 17.6 17.2 28 27.8 26.7 34.6 36.1 66.2 39.9 85.1 4.3 21.4 8.7 43.2-4.1 56s-36.2 10.2-50.5 4.1c-19.9-8.5-28.4-26.5-35-40.4-11.2-23.8-11.9-46.6-10.8-61.4 10-2.9 15.1-12.3 12.8-19.4-1.8-5.6-8.5-11.2-15.4-9.2-5.3 1.5-9.1 7-8.8 13.4-4.8-.1-17.6-1.2-29.8-10.4-8.9-6.7-13.4-14.7-15.5-19.1-5.5.7-16.5 2.7-27.6 10.7-9.3 6.4-14.5 14.1-17.1 18.7z" fill="#5222d0"/><path d="m1186.5 213.2c12 14.5 15.8 29.8 15.8 29.8 3.9 17.2-1.7 31.8-4.2 37.7 6.3-4.8 12.7-9.6 19-14.4 4.4 14.6 8.7 29.1 13.1 43.7 3.3-.3 10.1-1.5 16.9-6.3 5.2-3.7 8.3-8 10-10.7-8.1-7.5-23.6-24.1-30.7-50.2-3.4-12.6-3.9-23.8-3.5-32.2 9.1-3.7 13.8-12.6 11.9-20-1.4-5.4-6.9-11.9-14-10.9-5.9.9-10.8 6.7-10.7 13.8-4.5 0-15.1-.5-26.2-7.2-11.5-6.9-17-16.5-19.1-20.6.5 19.2 6.4 30.3 11.7 36.9 3.5 4.5 5.1 4.7 10 10.6z" fill="#6d6c6c" opacity=".24"/><path d="m1140 209c-1.1 4-1 8.1.5 12 .5 1.4 2.4 1.5 2.9 0 1.2-3.6 1.2-7.4.1-11-.6-1.8-3.5-1.1-2.9.8 1 3.2.9 6.3-.1 9.5h2.9c-1.3-3.4-1.5-6.9-.5-10.4.5-2-2.3-2.8-2.9-.9zm-3.6-6.2c2.6-1.6 5.8-1.3 8 .8 1.4 1.3 3.5-.8 2.1-2.1-3.1-3-7.9-3.6-11.6-1.3-1.6 1-.1 3.6 1.5 2.6zm10.8 25.4c1.9 0 1.9-3 0-3-2 0-2 3 0 3zm6.6-8.7v.3c0 .8.7 1.5 1.5 1.5s1.5-.7 1.5-1.5v-.3c0-.8-.7-1.5-1.5-1.5s-1.5.6-1.5 1.5zm.3 7.5c1.9 0 1.9-3 0-3s-1.9 3 0 3zm-41.2-13.4c-1.2 4-1.1 8.1.3 12 .5 1.4 2.4 1.4 2.9 0 1.2-3.6 1.3-7.4.3-11-.5-1.9-3.4-1.1-2.9.8.9 3.2.8 6.3-.3 9.4h2.9c-1.2-3.4-1.4-6.9-.3-10.4.5-1.9-2.4-2.7-2.9-.8zm-1.7-7.5c2.1-1.1 5-.6 6.4 1.4 1.1 1.5 3.7 0 2.6-1.5-2.5-3.3-6.8-4.4-10.5-2.5-1.7.9-.2 3.5 1.5 2.6zm33.7 54.4c7.7-1.4 14.4-5.5 19.4-11.6.9-1.1-.7-2.7-1.6-1.6-4.7 5.8-11 9.6-18.4 11-1.4.3-.8 2.5.6 2.2z" fill="#161616"/><path d="m1160.5 247.5c1.8.6 3.3 1.5 4.6 2.8 1 1 2.6-.6 1.6-1.6-1.6-1.6-3.5-2.7-5.6-3.4-1.4-.4-2 1.8-.6 2.2z" fill="#161616"/><path d="m1222.8 116.7c12.7 17.6 29 42.5 44.5 74.3 16.4 33.6 28.4 58.9 19.1 68.9-12.3 13.3-54.8-7.8-61.6-11.3 1.4 9.1 4.9 23.6 15.2 38.1 5.2 7.3 14.3 20.2 31.1 26.2 10.1 3.6 19.1 3.4 22.6 3.1 4.7-.3 10.1-.7 16-3.9 0 0 7.7-4.1 12.9-12.5 7.9-12.8 3.7-30.1-1.9-51.8-6.7-26-15.7-43.3-24.5-60.4-2.2-4.2-4.8-9.1-9-14.8-4.2-5.8-7.3-8.9-20.3-21.4-19.3-18.7-22.3-21.4-28.1-25.3-6.4-4.4-12.1-7.3-16-9.2z" fill="#371b9b" opacity=".45"/><path d="m1198.7 286.8c.8 2.3 2.6 8.8 0 16-3.9 10.7-14.7 14.3-16.4 14.8-12.3 4-27.8-2.3-38.2-16 1.4 3.6 4.5 10 10.9 15.6 3.2 2.8 11.9 10.3 24.2 9.4 2.1-.2 15.6-1.2 21.8-12.9 4.5-8.3 3.5-18.7-2.3-26.9z" fill="#371b9b" opacity=".43"/></svg>